<svg xmlns="http://www.w3.org/2000/svg"  viewBox="0 0 56 45"><defs><style>.camera-a{fill:#0cf;}.camera-b{fill:#595959;fill-rule:evenodd;}</style></defs><rect class="camera-a" x="14.4" y="14.93" width="25.34" height="15.34"/><path class="camera-b" d="M30.15,19.87a3.86,3.86,0,0,0-1.41-1,3.72,3.72,0,0,0-1.66-.33,4.44,4.44,0,0,0-1.64.33,4.68,4.68,0,0,0-1.3,1,2.14,2.14,0,0,0-.88,1.31,4.54,4.54,0,0,0-.43,1.63,4.59,4.59,0,0,0,.43,1.65,2.85,2.85,0,0,0,.88,1.42,8.93,8.93,0,0,0,1.3.87,4.42,4.42,0,0,0,1.64.32,3.72,3.72,0,0,0,1.66-.32,6.07,6.07,0,0,0,1.41-.87A4.09,4.09,0,0,0,31,24.46a4.6,4.6,0,0,0,.32-1.65A4.54,4.54,0,0,0,31,21.18a2.81,2.81,0,0,0-.89-1.31Zm-13-4.27a1.11,1.11,0,0,1,1.2,1.09,1.2,1.2,0,0,1-1.2,1.2,1.22,1.22,0,0,1-1.21-1.2,1.13,1.13,0,0,1,1.21-1.09Zm10,.88a5.32,5.32,0,0,1,2.41.55h0a5.37,5.37,0,0,1,2.09,1.3h0A6.08,6.08,0,0,1,33,20.41h0a5.86,5.86,0,0,1,.45,2.4,5.74,5.74,0,0,1-.45,2.4h0a6.12,6.12,0,0,1-1.42,2.09h0a5.63,5.63,0,0,1-2.09,1.31h0a5.6,5.6,0,0,1-2.41.55,6.58,6.58,0,0,1-2.4-.55h0a6.41,6.41,0,0,1-2-1.31h0a6.45,6.45,0,0,1-1.43-2.09h0a5.73,5.73,0,0,1-.43-2.4,5.85,5.85,0,0,1,.43-2.4h0a6.41,6.41,0,0,1,1.43-2.08h0a6,6,0,0,1,2-1.3h0a6.2,6.2,0,0,1,2.4-.55ZM14.84,14.17a1.68,1.68,0,0,0-1.64,1.65V29.71A1.8,1.8,0,0,0,15,31.45H39.24A1.74,1.74,0,0,0,41,29.71V15.82a1.6,1.6,0,0,0-1.53-1.65H33l-.44-2.29a1.3,1.3,0,0,0-1.31-1.09H23a1.28,1.28,0,0,0-1.31,1.09l-.44,2.29Z"/></svg>