<svg xmlns="http://www.w3.org/2000/svg" width="70%" height="55%" viewBox="0 0 304.12 388.91"><defs><style>.a{isolation:isolate;}.b{fill:#878787;opacity:0.2;}.ac,.af,.b,.d,.g,.k,.q,.s,.u,.v{mix-blend-mode:multiply;}.c,.d{fill:#e9e9e9;}.e{fill:#b0b0b0;}.f{fill:#29bdef;}.g,.l{fill:#d4d4d4;}.h{fill:#fcbe00;}.i{fill:#f59a00;}.j{fill:#259ec6;}.m{fill:#fdc521;}.n{fill:#f7a825;}.o{fill:#d07f00;}.p{fill:#3c3c3b;}.q,.w{fill:silver;}.r{fill:#678796;}.s{fill:#aaaaa9;}.t{fill:#354750;}.u{fill:#acacac;}.v{fill:#e0e0e0;}.x{fill:#3aaa35;}.y{fill:#2c8028;}.z{fill:#1e621d;}.aa{fill:#0b4510;}.ab,.ac{fill:#e5e5e5;}.ad,.ag{fill:#fff;}.ae{fill:#8ab21d;}.af{fill:#d6d6d6;}.ag{opacity:0.56;mix-blend-mode:soft-light;}.ah{fill:#006964;}.ai{fill:#babab8;}.aj{fill:#95c11f;}.ak{fill:#feca33;}.al{fill:#f9b033;}.am{fill:#342d27;}</style></defs><g class="a"><ellipse class="b" cx="152.81" cy="362.91" rx="124.62" ry="26"/><path class="c" d="M235.58,68c-4.77-6-11.25-17.58-3.14-31.92,8-14.1,25.52-23,59.34-15.15,25,5.81,33.3,34,66.41,45.34,2.86,1,5.15,3.32-1.19,3.91-9.61.88-30.11,0-43.23-3-22.29-5.17-28.34,4-37.58,8.79C263.46,82.56,244.55,79.3,235.58,68Z" transform="translate(-56.94 -17.95)"/><path class="d" d="M357,70.13c-2.17.19-4.89.3-8,.32a10.91,10.91,0,0,0-3.38-4.57c-11.14-8.7-21.93-18.47-34.53-25a79,79,0,0,0-38.32-9.26c-10.65.22-22.52,2.37-31.44,8.57a39,39,0,0,0-12.43,13.72c-.87-5.17-.25-11.21,3.5-17.84,8-14.1,25.52-23,59.34-15.15,25,5.81,33.3,34,66.41,45.34C361.05,67.2,363.34,69.54,357,70.13Z" transform="translate(-56.94 -17.95)"/><path class="e" d="M275,18.27a.23.23,0,0,1-.12.31c-2.64,1.19-5.24,2.27-7.76,3.44a80.26,80.26,0,0,0-7.26,3.79,74.14,74.14,0,0,0-6.68,4.41,29.83,29.83,0,0,0-5.74,5.54,31.66,31.66,0,0,0-4.09,7,36.62,36.62,0,0,0-2.4,7.83,45.5,45.5,0,0,0-.08,16.66h0a.24.24,0,0,1-.15.26.22.22,0,0,1-.29-.15,39.5,39.5,0,0,1-1.69-8.43,44.83,44.83,0,0,1,0-8.67,38.8,38.8,0,0,1,1.83-8.6,35.34,35.34,0,0,1,3.94-8,39.24,39.24,0,0,1,5.81-6.87,29.63,29.63,0,0,1,7.45-5,38.13,38.13,0,0,1,8.39-2.8,36.19,36.19,0,0,1,8-.84l.87.07S275,18.24,275,18.27Z" transform="translate(-56.94 -17.95)"/><path class="e" d="M294.35,21.58c-2.7,1.33-5.33,2.62-7.86,4a72.67,72.67,0,0,0-7.34,4.69c-2.33,1.69-4.56,3.47-6.73,5.37A43.4,43.4,0,0,0,266.47,42,92.33,92.33,0,0,0,259,55.65a67.7,67.7,0,0,0-4,17.43h0a.23.23,0,0,1-.22.21.22.22,0,0,1-.24-.22A55.48,55.48,0,0,1,255,64a71.36,71.36,0,0,1,1.77-9,94.28,94.28,0,0,1,6.68-15.09,55.84,55.84,0,0,1,5.79-7.44,34.3,34.3,0,0,1,7.36-5.95,39.09,39.09,0,0,1,8.6-3.83,35.23,35.23,0,0,1,7.64-1.48C293.36,21.3,293.86,21.43,294.35,21.58Z" transform="translate(-56.94 -17.95)"/><path class="e" d="M312.09,40.26q-4.3.2-8.48.7c-2.78.34-5.51.76-8.21,1.33A31.44,31.44,0,0,0,287.6,45a30.07,30.07,0,0,0-12,11.26,38.73,38.73,0,0,0-5.38,16.19v0a.23.23,0,0,1-.22.2.22.22,0,0,1-.24-.22,36,36,0,0,1,.91-8.82,38.3,38.3,0,0,1,2.93-8.47,33.41,33.41,0,0,1,5.11-7.54,32.27,32.27,0,0,1,7.13-5.82,40.16,40.16,0,0,1,8.41-3.84,32.58,32.58,0,0,1,9-1.53,45.18,45.18,0,0,1,9,.65,43,43,0,0,1,7,1.8l1.1,1.08C317.56,40.07,314.81,40.13,312.09,40.26Z" transform="translate(-56.94 -17.95)"/><path class="e" d="M344.57,63.25a17.84,17.84,0,0,1-4.33-.22,72.83,72.83,0,0,1-8-1.91c-2.58-.74-5.11-1.58-7.62-2.5-1.25-.47-2.5-.93-3.77-1.37a23.66,23.66,0,0,0-3.66-1,29.36,29.36,0,0,0-7.62-.43,37.63,37.63,0,0,0-7.69,1.32,50.85,50.85,0,0,0-14.47,6.59h0a.21.21,0,0,1-.29,0,.22.22,0,0,1,0-.32,44.6,44.6,0,0,1,6.64-4.76,49.27,49.27,0,0,1,7.4-3.63,40.15,40.15,0,0,1,8.08-2.18,32.63,32.63,0,0,1,8.5-.17,35.29,35.29,0,0,1,4.23.74l4,.93a61,61,0,0,1,7.76,2.5c2.53,1,5,2.14,7.38,3.14a19.58,19.58,0,0,0,6.42,1.67l1,.53A10.93,10.93,0,0,1,344.57,63.25Z" transform="translate(-56.94 -17.95)"/><path class="f" d="M266.35,77.69c1.39.33,1.59,1.29.44,2.14,0,0-7,6.65-15,4.78s-11.41-10.93-11.41-10.93c-.65-1.26-.05-2,1.35-1.71Z" transform="translate(-56.94 -17.95)"/><path class="g" d="M266.79,79.83a22.16,22.16,0,0,1-5.18,3.43,3.26,3.26,0,0,1-2.39-1.35s-4-6-9.07-7.16a16,16,0,0,0-7.06.3,3.8,3.8,0,0,1-2.14,0c-.41-.84-.61-1.38-.61-1.38-.65-1.26-.05-2,1.35-1.71l24.66,5.72C267.74,78,267.94,79,266.79,79.83Z" transform="translate(-56.94 -17.95)"/><rect class="h" x="115.69" y="185.45" width="222.97" height="7.13" transform="translate(-65.26 349.61) rotate(-76.93)"/><rect class="i" x="117.43" y="187.64" width="222.97" height="3.56" transform="translate(-64.31 351.62) rotate(-76.93)"/><path class="j" d="M244.56,91.36,247,81A5.16,5.16,0,0,1,257,83.35L254.61,93.7Z" transform="translate(-56.94 -17.95)"/><path class="g" d="M250.78,92.81c4.24-4,4.67-11.92-.66-15.43a5,5,0,0,1,3-.22A5.17,5.17,0,0,1,257,83.35L254.61,93.7Z" transform="translate(-56.94 -17.95)"/><path class="f" d="M204.12,306.13l4.63-19.92-7.93-1.84-4.63,19.92a1.32,1.32,0,0,0,1,1.57l5.38,1.25A1.31,1.31,0,0,0,204.12,306.13Zm-1-1.55a.87.87,0,0,1-1.05.65l-3.62-.84a.88.88,0,0,1-.66-1.05l1-4.29a.87.87,0,0,1,1.06-.65l3.61.83a.88.88,0,0,1,.66,1.06Z" transform="translate(-56.94 -17.95)"/><g class="k"><path class="l" d="M202.55,307.11l-1.15-.27a12,12,0,0,0,3.49-6.24,18.17,18.17,0,0,0,.45-6.19,19.22,19.22,0,0,0-1-5.13c-1.21-2.79-1.34-3.15-2.6-4.69l7,1.62-4.63,19.92A1.31,1.31,0,0,1,202.55,307.11Z" transform="translate(-56.94 -17.95)"/></g><path class="m" d="M100.58,92c-2.74-8.77-5.72-19.44-8.38-27.59q3.83-1.12,7.68-2.16l.77,1.27,1.11,1.83c0-.7,0-1.41,0-2.11,0-.49,0-1,0-1.47q2.83-.73,5.68-1.42l1.1,2.48,1.36,3.12c-.1-1.13-.2-2.25-.29-3.37-.07-.9-.15-1.79-.22-2.69q6.54-1.51,13.13-2.74l1.11,3.27c.44,1.29.88,2.58,1.31,3.87-.08-1.35-.15-2.71-.22-4.07l-.18-3.44q14.85-2.65,29.91-3.84l.48,1.38c.23.67.46,1.34.68,2,.15-.7.29-1.39.43-2.09.09-.48.19-1,.29-1.45Q166.8,52,177.36,52l.39,3.42q.24,2,.45,4.05c.22-1.35.43-2.7.66-4.05.18-1.14.37-2.28.56-3.42q4.1,0,8.2.15c-.51,8.56-.71,19.63-1.14,28.81Z" transform="translate(-56.94 -17.95)"/><path class="n" d="M100.53,92c-.44-1.69-1-3.45-1.29-4.29A282.05,282.05,0,0,1,186.7,76.48c-.06.87-.16,2.91-.24,4.48Z" transform="translate(-56.94 -17.95)"/><path class="o" d="M95.89,63.33q3.72,10.1,7.35,20.24-2.64-10.41-5.18-20.85Z" transform="translate(-56.94 -17.95)"/><path class="o" d="M103.5,61.29q3.42,10.21,6.73,20.44-2.31-10.49-4.54-21Z" transform="translate(-56.94 -17.95)"/><path class="o" d="M111.17,59.45q3.09,10.3,6.09,20.63-2-10.56-3.89-21.11Z" transform="translate(-56.94 -17.95)"/><path class="o" d="M118.88,57.82q2.76,10.38,5.45,20.78Q122.67,68,121.09,57.39Z" transform="translate(-56.94 -17.95)"/><path class="o" d="M126.62,56.38q2.46,10.46,4.82,20.93-1.35-10.64-2.6-21.3Z" transform="translate(-56.94 -17.95)"/><path class="o" d="M134.4,55.15q2.13,10.51,4.17,21.06-1-10.68-1.94-21.38Z" transform="translate(-56.94 -17.95)"/><path class="o" d="M142.21,54.12Q144,64.7,145.73,75.29q-.69-10.71-1.28-21.43Z" transform="translate(-56.94 -17.95)"/><path class="o" d="M150,53.29q1.49,10.64,2.88,21.26-.37-10.72-.63-21.46Z" transform="translate(-56.94 -17.95)"/><path class="o" d="M157.89,52.66q1.17,10.67,2.23,21.35,0-10.74,0-21.49Z" transform="translate(-56.94 -17.95)"/><path class="o" d="M165.76,52.24q.84,10.69,1.57,21.41.3-10.76.69-21.5Z" transform="translate(-56.94 -17.95)"/><path class="o" d="M173.64,52q.51,10.73.91,21.45.63-10.74,1.35-21.47Z" transform="translate(-56.94 -17.95)"/><path class="o" d="M181.52,52q.18,10.74.26,21.48,1-10.72,2-21.45Z" transform="translate(-56.94 -17.95)"/><path class="f" d="M187.44,80.87a1.84,1.84,0,0,0-2.13-2.11L100.77,89.62a1.63,1.63,0,0,0-1.17,2.27c1.06,2,2,4.41,2.94,6.23.4.79.92,1.49,1.79,1.38l80.09-10.28c.87-.11,1.15-.93,1.38-1.78C186.32,85.52,186.92,83.26,187.44,80.87Z" transform="translate(-56.94 -17.95)"/><path class="g" d="M187.44,80.87c-.52,2.39-1.12,4.65-1.64,6.57-.23.85-.51,1.67-1.38,1.78l-5.68.73c-2.32-4.28-6.64-6.16-11.92-6.18-9.65,0-19.41,1.28-28.94,2.71-12.48,1.88-24.86,5-35.62,11-.83-1.73-1.71-3.84-2.66-5.63a1.63,1.63,0,0,1,1.17-2.27l84.54-10.86A1.84,1.84,0,0,1,187.44,80.87Z" transform="translate(-56.94 -17.95)"/><rect class="h" x="153.44" y="90.17" width="6.26" height="195.75" transform="matrix(0.99, -0.13, 0.13, 0.99, -79.59, 3.5)"/><rect class="i" x="156.56" y="89.97" width="3.13" height="195.75" transform="translate(-79.57 3.72) rotate(-7.32)"/><path class="j" d="M141,102.37l-1.19-9.25a4.53,4.53,0,1,1,9-1.15l1.19,9.25Z" transform="translate(-56.94 -17.95)"/><path class="g" d="M146.56,101.65c2.28-4.55.2-11.23-5.27-12.49A4.53,4.53,0,0,1,148.8,92l1.19,9.25Z" transform="translate(-56.94 -17.95)"/><path class="f" d="M173.59,291.19l-2.29-17.81-7.09.91,2.29,17.81a1.14,1.14,0,0,0,1.28,1l4.81-.62A1.15,1.15,0,0,0,173.59,291.19Zm-1.31-1a.76.76,0,0,1-.66.86l-3.24.42a.77.77,0,0,1-.86-.67L167,287a.78.78,0,0,1,.67-.87l3.24-.41a.76.76,0,0,1,.86.66Z" transform="translate(-56.94 -17.95)"/><g class="k"><path class="l" d="M172.59,292.47l-1,.13a10.56,10.56,0,0,0,1-6.2,16.47,16.47,0,0,0-1.52-5.23,17.64,17.64,0,0,0-2.35-3.93c-1.86-1.93-2.07-2.19-3.58-3.06l6.22-.8,2.29,17.81A1.15,1.15,0,0,1,172.59,292.47Z" transform="translate(-56.94 -17.95)"/></g><rect class="p" x="54.25" y="154.34" width="96.86" height="8.41" transform="translate(-113.91 39.65) rotate(-24.76)"/><path class="q" d="M64.77,171.4a15.8,15.8,0,0,0,5,.76,26.15,26.15,0,0,0,6.91-.56c2.29-.65,4.61-1.39,6.89-2.15,2.78-.94,5.54-1.93,8.26-3,11.58-4.72,21.86-11.15,32.37-17.84l-3.7,2.35a88.93,88.93,0,0,1,16.37-8.57,36.2,36.2,0,0,1,4-.78,14.93,14.93,0,0,0,6.21-2.36l1.32,2.86-88,40.57L56.94,175Z" transform="translate(-56.94 -17.95)"/><polygon class="r" points="17.77 169.4 85.81 138.01 91.48 124.12 3.52 164.7 17.77 169.4"/><path class="q" d="M67.43,179.43c3.46,2.59,7.23,1.76,11.77,1.06,8.13-1.26,38.29-14.67,44.93-18.92,6.06-3.81,10.65-7.44,16.44-11.65,2.52-1.84,4.93-4.26,7.21-6.29l-5,12.33-68,31.38-14.25-4.7Z" transform="translate(-56.94 -17.95)"/><rect class="f" x="135.26" y="158.93" width="5.59" height="152.61" transform="translate(-142.76 61.48) rotate(-24.76)"/><rect class="s" x="137.93" y="158.34" width="2.79" height="152.61" transform="translate(-142.35 61.89) rotate(-24.74)"/><path class="t" d="M106.5,176.49,103,168.93a4,4,0,1,1,7.34-3.39l3.49,7.56Z" transform="translate(-56.94 -17.95)"/><path class="u" d="M111.05,174.39c.72-4.49-2.84-9.62-7.83-9.23a4,4,0,0,1,1.77-1.6,4.05,4.05,0,0,1,5.37,2l3.49,7.56Z" transform="translate(-56.94 -17.95)"/><path class="f" d="M236.1,237.5a3.51,3.51,0,0,0-4.64-.63l-5.78,3.67v0s-1.13.68-1.69-.08c-.33-.43.11-1.34.36-1.79a1.88,1.88,0,0,0,.12-.18l8.57-17a2.51,2.51,0,0,0-4.49-2.26l-8.49,16.89h0c-.15.4-.71.42-.71.42a.71.71,0,0,1-.45-.73l6.25-19.47a2.51,2.51,0,1,0-4.79-1.48L214,234.4a.48.48,0,0,1-.57.33.58.58,0,0,1-.44-.49l3.4-18.09a2.51,2.51,0,0,0-4.94-.93l-3.31,17.64h0s-.15,1.12-.88,1c-.55-.07-.57-.66-.55-.95v-.09a.32.32,0,0,0,0-.07h0l.83-11.12a2.51,2.51,0,0,0-5-.39l-.85,11.26a4.13,4.13,0,0,0,0,.5c-.11,1.23-1.3,14.3-1.48,19.51a3.28,3.28,0,0,0,.88,2.61l-9.45,26,22.11,5.8,5-27.2c3.09-.81,6.3-8.27,8.36-11.06,1.51-2,7.77-7.29,7.77-7.29C236.28,240.55,236.91,238.61,236.1,237.5Z" transform="translate(-56.94 -17.95)"/><path class="v" d="M236.1,237.5a3.51,3.51,0,0,0-4.64-.63l-2,1.29c-.22.33-.43.66-.55.88a29.77,29.77,0,0,1-1.81,3c-1.32,1.87-2.83,3.67-4.3,5.44-.38.45-1.61,2.17-1.77,2.37-2.89,4.31-5.48,8.7-8.76,12.78a29.75,29.75,0,0,1-12.49,9.1,18.8,18.8,0,0,1-5.07,1.23l-3,8.16,22.11,5.8,5-27.2c3.09-.81,6.3-8.27,8.36-11.06,1.51-2,7.77-7.29,7.77-7.29C236.28,240.55,236.91,238.61,236.1,237.5Z" transform="translate(-56.94 -17.95)"/><path class="v" d="M236.1,237.5a3,3,0,0,0-2.54-1.22c-.1.14-.18.28-.28.4-1.58,2.07-3.16,4.13-4.76,6.17l-.91,1.17-.34.44a66.52,66.52,0,0,0-4.85,7.34c-1.78,3.25-3.16,6.7-4.95,9.95-2.66,4.82-6.35,9.88-11.32,12.55A21.9,21.9,0,0,1,193.23,277l-1.53,4.19,22.11,5.8,5-27.2c3.09-.81,6.3-8.27,8.36-11.06,1.51-2,7.77-7.29,7.77-7.29C236.28,240.55,236.91,238.61,236.1,237.5Z" transform="translate(-56.94 -17.95)"/><g class="k"><path class="w" d="M204.5,255.13s.75.42,1.88.93c.57.25,1.23.53,2,.79.35.13.73.25,1.11.37a11.22,11.22,0,0,0,1.17.33c.78.22,1.58.37,2.33.51l1.1.16c.34.06.68.08,1,.12s.59.08.85.08l.66.05.58.07-.56.16A8.85,8.85,0,0,1,215,259a5.7,5.7,0,0,1-1,.08,11.31,11.31,0,0,1-1.16,0c-.4-.05-.83-.06-1.25-.14s-.84-.15-1.26-.27a12.69,12.69,0,0,1-2.38-.88c-.37-.16-.7-.38-1-.56s-.61-.39-.86-.59A7.62,7.62,0,0,1,204.5,255.13Z" transform="translate(-56.94 -17.95)"/></g><polygon class="x" points="167 123.44 125.53 120.1 100.51 92.71 196.08 100.42 167 123.44"/><path class="g" d="M190.56,133.36c18.93,8.56,39.7,2,41.11,1.91l-7.73,6.12-41.47-3.34-25-27.39,14.73,1.19C173.93,114.39,176.27,126.9,190.56,133.36Z" transform="translate(-56.94 -17.95)"/><rect class="y" x="202.93" y="64.07" width="5.02" height="95.89" transform="translate(20.34 289.84) rotate(-85.39)"/><path class="g" d="M234.45,116.87c-.43-.15-.85-.29-1.28-.4-15.89-4.11-31.92-5.22-48.17-6.78a199.8,199.8,0,0,0-27.38-1.14l.24-2.89,95.57,7.71-.4,5Z" transform="translate(-56.94 -17.95)"/><polygon class="y" points="124.26 135.77 100.51 92.72 125.53 120.11 124.26 135.77"/><path class="g" d="M179.71,151c.11-.65.2-1.32.25-2a25.63,25.63,0,0,0-15.31-25.31l-7.2-13,25,27.39-1.27,15.66Z" transform="translate(-56.94 -17.95)"/><polygon class="y" points="165.73 139.11 196.07 100.42 166.99 123.45 165.73 139.11"/><path class="g" d="M223.93,154.6c0,.3,0,.61-.05.92l-1.21,1.54,1.26-15.66,29.09-23-11,14A25.6,25.6,0,0,0,223.93,154.6Z" transform="translate(-56.94 -17.95)"/><rect class="z" x="194.71" y="126.75" width="15.72" height="41.61" transform="translate(-17.74 319.65) rotate(-85.39)"/><path class="g" d="M208.88,141.73A25.61,25.61,0,0,0,185.13,154l-3.93-.31L182.46,138l41.48,3.35-.53,6.54A25.06,25.06,0,0,0,208.88,141.73Z" transform="translate(-56.94 -17.95)"/><rect class="h" x="118.19" y="220.94" width="156.53" height="5" transform="translate(-99.04 383.3) rotate(-85.38)"/><rect class="i" x="119.44" y="222.3" width="156.53" height="2.5" transform="translate(-97.97 384.67) rotate(-85.38)"/><path class="aa" d="M198.44,153.84l.6-7.43a3.62,3.62,0,1,1,7.21.58l-.59,7.44Z" transform="translate(-56.94 -17.95)"/><path class="g" d="M202.9,154.2c2.54-3.18,2-8.75-2.05-10.64a3.61,3.61,0,0,1,5.4,3.43l-.59,7.44Z" transform="translate(-56.94 -17.95)"/><path class="ab" d="M197,216.58a1.66,1.66,0,0,0-1.49-1.83l-33.36-3.54a1.67,1.67,0,0,0-1.84,1.49h0a1.67,1.67,0,0,0,1.49,1.84l33.36,3.53a1.67,1.67,0,0,0,1.84-1.49Z" transform="translate(-56.94 -17.95)"/><path class="ac" d="M160.3,212.55a1.66,1.66,0,0,1,1.81-1.34l33.36,3.54a1.66,1.66,0,0,1,1.49,1.69Z" transform="translate(-56.94 -17.95)"/><path class="ab" d="M197.31,213.29a1.67,1.67,0,0,0-1.49-1.84l-33.36-3.53a1.67,1.67,0,0,0-1.84,1.49h0a1.67,1.67,0,0,0,1.48,1.84l33.37,3.53a1.67,1.67,0,0,0,1.84-1.49Z" transform="translate(-56.94 -17.95)"/><path class="ac" d="M160.65,209.26a1.66,1.66,0,0,1,1.81-1.34l33.36,3.53a1.67,1.67,0,0,1,1.49,1.69Z" transform="translate(-56.94 -17.95)"/><path class="ab" d="M197.66,210a1.67,1.67,0,0,0-1.49-1.84l-33.37-3.54a1.68,1.68,0,0,0-1.84,1.49h0a1.67,1.67,0,0,0,1.49,1.84l33.37,3.54a1.67,1.67,0,0,0,1.84-1.49Z" transform="translate(-56.94 -17.95)"/><path class="ac" d="M161,206a1.68,1.68,0,0,1,1.81-1.35l33.37,3.54a1.67,1.67,0,0,1,1.49,1.69Z" transform="translate(-56.94 -17.95)"/><path class="ab" d="M198,206.8a1.67,1.67,0,0,0-1.49-1.84l-33.36-3.54a1.69,1.69,0,0,0-1.85,1.49h0a1.67,1.67,0,0,0,1.49,1.84l33.37,3.54A1.68,1.68,0,0,0,198,206.8Z" transform="translate(-56.94 -17.95)"/><path class="ac" d="M161.34,202.77a1.66,1.66,0,0,1,1.81-1.35L196.51,205a1.66,1.66,0,0,1,1.49,1.69Z" transform="translate(-56.94 -17.95)"/><path class="ab" d="M176.91,186.18a1.69,1.69,0,0,1,1.76,1.61l.72,17.14a1.68,1.68,0,0,1-1.61,1.76h0a1.68,1.68,0,0,1-1.76-1.61l-.73-17.15a1.68,1.68,0,0,1,1.62-1.75Z" transform="translate(-56.94 -17.95)"/><path class="ac" d="M177.92,206.67a1.68,1.68,0,0,0,1.47-1.74l-.72-17.14a1.68,1.68,0,0,0-1.61-1.6Z" transform="translate(-56.94 -17.95)"/><path class="ab" d="M171.1,188.12a1.69,1.69,0,0,1,2.17,1l5.86,16.13a1.69,1.69,0,0,1-1,2.16h0a1.69,1.69,0,0,1-2.17-1l-5.86-16.12a1.69,1.69,0,0,1,1-2.17Z" transform="translate(-56.94 -17.95)"/><path class="ac" d="M178.26,207.35a1.67,1.67,0,0,0,.87-2.09l-5.86-16.13a1.67,1.67,0,0,0-2-1Z" transform="translate(-56.94 -17.95)"/><path class="ab" d="M167.29,189.43a1.69,1.69,0,0,1,2.34.47l9.48,14.3a1.69,1.69,0,0,1-.47,2.34h0a1.68,1.68,0,0,1-2.34-.47l-9.48-14.3a1.68,1.68,0,0,1,.47-2.34Z" transform="translate(-56.94 -17.95)"/><path class="ac" d="M178.76,206.45a1.69,1.69,0,0,0,.35-2.25l-9.48-14.3a1.68,1.68,0,0,0-2.2-.54Z" transform="translate(-56.94 -17.95)"/><path class="ab" d="M164.37,192.24a1.68,1.68,0,0,1,2.38.07l11.77,12.48a1.69,1.69,0,0,1-.07,2.39h0a1.69,1.69,0,0,1-2.39-.07L164.3,194.62a1.68,1.68,0,0,1,.07-2.38Z" transform="translate(-56.94 -17.95)"/><path class="ac" d="M178.55,207.07a1.68,1.68,0,0,0,0-2.28l-11.77-12.48a1.67,1.67,0,0,0-2.26-.16Z" transform="translate(-56.94 -17.95)"/><path class="ab" d="M161.11,196.85a1.68,1.68,0,0,1,2.29-.67l15,8.29a1.68,1.68,0,0,1,.66,2.29h0a1.69,1.69,0,0,1-2.29.66l-15-8.28a1.69,1.69,0,0,1-.66-2.29Z" transform="translate(-56.94 -17.95)"/><path class="ac" d="M179.15,206.62a1.67,1.67,0,0,0-.72-2.15l-15-8.29a1.7,1.7,0,0,0-2.21.54Z" transform="translate(-56.94 -17.95)"/><path class="ab" d="M186.23,187.3a1.7,1.7,0,0,0-2.06,1.21l-4.29,16.61a1.67,1.67,0,0,0,1.21,2.06h0a1.7,1.7,0,0,0,2.06-1.21l4.29-16.61a1.68,1.68,0,0,0-1.21-2.06Z" transform="translate(-56.94 -17.95)"/><path class="ac" d="M181,207.13a1.68,1.68,0,0,1-1.07-2l4.29-16.61a1.69,1.69,0,0,1,1.91-1.23Z" transform="translate(-56.94 -17.95)"/><path class="ab" d="M191.5,190.42a1.69,1.69,0,0,0-2.33.53l-9.11,14.54a1.69,1.69,0,0,0,.54,2.33h0a1.67,1.67,0,0,0,2.32-.53L192,192.75a1.7,1.7,0,0,0-.54-2.33Z" transform="translate(-56.94 -17.95)"/><path class="ac" d="M180.48,207.73a1.69,1.69,0,0,1-.42-2.24L189.17,191a1.69,1.69,0,0,1,2.19-.6Z" transform="translate(-56.94 -17.95)"/><path class="ab" d="M195,192.49a1.69,1.69,0,0,0-2.38,0l-12.27,12a1.69,1.69,0,0,0,0,2.39h0a1.69,1.69,0,0,0,2.38,0l12.27-12a1.68,1.68,0,0,0,0-2.39Z" transform="translate(-56.94 -17.95)"/><path class="ac" d="M180.18,206.74a1.69,1.69,0,0,1,.12-2.27l12.27-12a1.68,1.68,0,0,1,2.27-.07Z" transform="translate(-56.94 -17.95)"/><path class="ab" d="M197.23,195.85a1.71,1.71,0,0,0-2.35-.43l-14.12,9.75a1.69,1.69,0,0,0-.44,2.35h0a1.69,1.69,0,0,0,2.35.43l14.13-9.75a1.7,1.7,0,0,0,.43-2.35Z" transform="translate(-56.94 -17.95)"/><path class="ac" d="M180.25,207.38a1.67,1.67,0,0,1,.51-2.21l14.12-9.75a1.68,1.68,0,0,1,2.25.32Z" transform="translate(-56.94 -17.95)"/><path class="ab" d="M199.45,201a1.7,1.7,0,0,0-2.11-1.13l-16.42,5a1.68,1.68,0,0,0-1.13,2.1h0a1.69,1.69,0,0,0,2.1,1.13l16.43-4.95a1.69,1.69,0,0,0,1.13-2.11Z" transform="translate(-56.94 -17.95)"/><path class="ac" d="M179.76,206.82a1.66,1.66,0,0,1,1.16-1.95l16.42-5a1.69,1.69,0,0,1,2,1Z" transform="translate(-56.94 -17.95)"/><path class="ab" d="M181.58,186.68a1.69,1.69,0,0,0-1.86,1.51l-1.81,17.06a1.7,1.7,0,0,0,1.51,1.86h0a1.7,1.7,0,0,0,1.85-1.51l1.81-17.06a1.7,1.7,0,0,0-1.5-1.86Z" transform="translate(-56.94 -17.95)"/><path class="ac" d="M179.27,207.07a1.68,1.68,0,0,1-1.36-1.82l1.81-17.06a1.69,1.69,0,0,1,1.71-1.51Z" transform="translate(-56.94 -17.95)"/><path class="f" d="M176,269.61a1,1,0,0,0,0-.17l5.33-50.33-1.16-.13,1.94-18.37-3.89-.42-2,18.38-1.16-.12-5.35,50.48v0l-.83,7.88a3.13,3.13,0,1,0,6.23.66Zm-5.13,2.64a1.69,1.69,0,0,1,3.37.36l-.46,4.26a1.69,1.69,0,1,1-3.36-.36Z" transform="translate(-56.94 -17.95)"/><path class="s" d="M172.07,280.29a1.27,1.27,0,0,0,.06-.18c.16-.53.31-1.14.47-1.82a1.68,1.68,0,0,0,1.13-1.42l.46-4.26a1.68,1.68,0,0,0-.4-1.27c1.07-7.63,1.92-17.15,2.54-21.55.92-6.52,1.74-13,2.37-19.52a88.6,88.6,0,0,0,.56-10,75.86,75.86,0,0,1,0-8c.4-4.32.47-8.23-.89-12l3.68.39L180.13,219l1.16.13L176,269.44l-.87,8.23A3.12,3.12,0,0,1,172.07,280.29Z" transform="translate(-56.94 -17.95)"/><path class="ad" d="M179.91,213.56a1.08,1.08,0,1,0-2.14-.23,1.08,1.08,0,0,0,2.14.23Z" transform="translate(-56.94 -17.95)"/><path class="g" d="M178.74,214.51a.88.88,0,0,0,.55-.72.9.9,0,0,0-.8-1,.84.84,0,0,0-.62.17,1.07,1.07,0,0,1,1.08-.61,1.08,1.08,0,0,1-.21,2.14Z" transform="translate(-56.94 -17.95)"/><path class="ad" d="M180.33,209.6a1.08,1.08,0,1,0-2.14-.23,1.07,1.07,0,0,0,.95,1.18A1.08,1.08,0,0,0,180.33,209.6Z" transform="translate(-56.94 -17.95)"/><path class="g" d="M179.16,210.55a.88.88,0,0,0-.25-1.7.84.84,0,0,0-.62.17,1.07,1.07,0,0,1,1.08-.61,1.08,1.08,0,0,1-.21,2.14Z" transform="translate(-56.94 -17.95)"/><path class="ad" d="M180.75,205.63a1.08,1.08,0,0,0-2.14-.22,1.06,1.06,0,0,0,.95,1.18A1.09,1.09,0,0,0,180.75,205.63Z" transform="translate(-56.94 -17.95)"/><path class="g" d="M179.58,206.59a.87.87,0,0,0,.54-.72.88.88,0,0,0-.79-1,.84.84,0,0,0-.62.17,1.07,1.07,0,0,1,2,.57A1.08,1.08,0,0,1,179.58,206.59Z" transform="translate(-56.94 -17.95)"/><path class="ae" d="M222.55,284.8s-3.82,64.94-6.32,89.95c-.47,4.8-3.89,8.73-8.71,8.74l-57.74.08c-4.82,0-8.31-3.92-8.74-8.72-2.26-25.17-6.55-89.93-6.55-89.93Z" transform="translate(-56.94 -17.95)"/><path class="af" d="M157.54,284.89a50.62,50.62,0,0,0-15.25,36.05c0,27.66,23.15,50.71,50.81,50.67a49.82,49.82,0,0,0,24-6.21c-.29,3.49-.58,6.65-.85,9.35-.47,4.8-3.89,8.73-8.71,8.74l-57.74.08c-4.82,0-8.31-3.92-8.74-8.72-2.26-25.17-6.55-89.93-6.55-89.93Z" transform="translate(-56.94 -17.95)"/><path class="ag" d="M179.74,299.57a75.19,75.19,0,0,0,21.12-2.94c14.15-4.31,15.65-3.45,15.24,8.13-.32,8.76-1.48,26.35-1.84,36.35-.11,3.23-.26,4.41-1,.74-2.42-11.16-10.19-34.53-33.4-41.15C177.48,300,175.25,299.58,179.74,299.57Z" transform="translate(-56.94 -17.95)"/><rect class="ah" x="223.46" y="280.53" width="9.2" height="5.96" rx="1.54" transform="translate(-57.62 -17.4) rotate(-0.14)"/><rect class="ah" x="124.38" y="280.66" width="9.19" height="5.96" rx="1.54" transform="translate(-57.23 -17.82) rotate(-0.06)"/><path class="ai" d="M178.62,362a52.86,52.86,0,0,0,52.73-52.86l0-25.61a1.13,1.13,0,1,0-2.25,0l0,25.61A50.55,50.55,0,1,1,128,309.3l0-25.6a1.12,1.12,0,0,0-1.12-1.13,1.14,1.14,0,0,0-1.13,1.13l0,25.61A52.84,52.84,0,0,0,178.62,362Z" transform="translate(-56.94 -17.95)"/><path class="aj" d="M130.48,287.5a2.91,2.91,0,0,0,2.91,2.9l90.3-.12a2.9,2.9,0,0,0,2.9-2.91v-8.09a2.9,2.9,0,0,0-2.91-2.9l-90.3.11a2.92,2.92,0,0,0-2.9,2.92Z" transform="translate(-56.94 -17.95)"/><path class="af" d="M133.37,276.49h7.09c11.29,12.77,30.12,11.17,46.14,10.71a229.43,229.43,0,0,0,40-4.8v5a2.9,2.9,0,0,1-2.9,2.91l-90.3.12a2.91,2.91,0,0,1-2.91-2.9v-8.09A2.92,2.92,0,0,1,133.37,276.49Z" transform="translate(-56.94 -17.95)"/><path class="ak" d="M225.25,385.1v-6.87H306v6.87H316.8L303.27,254.37H227.93L214.41,385.1ZM247.44,266a2.68,2.68,0,0,1,2.68-2.68h31a2.67,2.67,0,0,1,2.67,2.68v6.31a2.67,2.67,0,0,1-2.67,2.68h-31a2.68,2.68,0,0,1-2.68-2.68Z" transform="translate(-56.94 -17.95)"/><path class="al" d="M215.46,375l12.47-120.6h26A62.75,62.75,0,0,0,231,302.52c0,34.15,28.49,62.64,62.63,62.64a60.94,60.94,0,0,0,20.73-3.63L315.75,375Z" transform="translate(-56.94 -17.95)"/><path class="am" d="M236.41,346.86c-1.34-2.33-1.12-5.28.63-8.32L258.72,301c1.75-3,4.19-4.7,6.88-4.7s5.14,1.67,6.89,4.7l21.67,37.54c1.76,3,2,6,.63,8.32s-4,3.61-7.51,3.61H243.92C240.43,350.47,237.76,349.19,236.41,346.86Zm25.53-44-21.68,37.55c-1,1.8-1.27,3.47-.62,4.59s2.2,1.75,4.28,1.75h43.36c2.08,0,3.65-.64,4.29-1.75s.41-2.79-.63-4.59l-21.68-37.55c-1-1.8-2.37-2.84-3.66-2.84S263,301.06,261.94,302.86Z" transform="translate(-56.94 -17.95)"/><polygon class="am" points="206.06 316.83 211.27 316.83 212.22 289.81 205.1 289.81 206.06 316.83"/><rect class="am" x="206.05" y="319.68" width="5.21" height="4.74"/><rect class="am" x="206.05" y="319.68" width="5.21" height="4.74"/><path class="ad" d="M132.25,366.62l9.48,1.49,1.49,9.48,2.05,13,2-13,1.49-9.48,9.48-1.49,13-2.05-13-2.05L148.81,361l-1.49-9.47-2-13-2.05,13L141.73,361l-9.48,1.49-13,2.05Zm13-2.05Z" transform="translate(-56.94 -17.95)"/><path class="ad" d="M123.11,340.31l4.36.69.68,4.35.94,6,.95-6,.68-4.35,4.35-.69,6-.94-6-.94-4.35-.69-.68-4.35-.95-6-.94,6-.68,4.35-4.36.69-6,.94Zm6-.94Z" transform="translate(-56.94 -17.95)"/><path class="ad" d="M286.35,312.06l7.1,1.12,1.11,7.09L296.1,330l1.53-9.74,1.12-7.09,7.09-1.12,9.74-1.53L305.84,309l-7.09-1.12-1.12-7.09-1.53-9.74-1.54,9.74-1.11,7.09-7.1,1.12-9.74,1.53Zm9.75-1.53Z" transform="translate(-56.94 -17.95)"/><path class="ad" d="M279.51,292.37l3.26.52.52,3.25.7,4.48.7-4.48.52-3.25,3.25-.52,4.48-.7-4.48-.71-3.25-.51-.52-3.26-.7-4.47-.7,4.47-.52,3.26-3.26.51-4.47.71Zm4.48-.7Z" transform="translate(-56.94 -17.95)"/></g></svg>