<svg xmlns="http://www.w3.org/2000/svg" viewBox="0 0 339.54 328.62"><path class="gear-a" d="M300.8,197.25h4.35v-59.4H266.29a102.24,102.24,0,0,0-8.25-20L282.4,93.44l3.08-3.07-3.08-3.08L246.55,51.44l-3.08-3.08-3.07,3.08L216,75.89A103.38,103.38,0,0,0,197,68.05V29.72H137.61V68.05a103.23,103.23,0,0,0-18,7.34l-23.94-24L92.6,48.36l-3.07,3.08L53.67,87.29,50.6,90.37l3.07,3.07L77.1,116.87a102.71,102.71,0,0,0-8.35,19.53H30.93v59.4H68.34a101.86,101.86,0,0,0,8.76,21L53.67,240.21l-3.07,3.08,3.07,3.07,35.86,35.86,3.07,3.07,3.08-3.07,23.94-24A102.34,102.34,0,0,0,139.06,266v37.92h59.4V265.16a102.05,102.05,0,0,0,17.49-7.4l24.45,24.46,3.07,3.07,3.08-3.07,35.85-35.86,3.08-3.07-3.08-3.08L258,215.85a102.28,102.28,0,0,0,7.83-18.6Zm-71.91-30.42a61.58,61.58,0,1,1-61.58-61.58A61.64,61.64,0,0,1,228.89,166.83Z"/></svg>