<svg xmlns="http://www.w3.org/2000/svg" viewBox="0 0 188 187"><defs><style>.home-a{fill:#727270;}.home-b{fill:#67cdfd;}</style></defs><path class="home-a" d="M168.73,77.21,100.5,15.14a10.13,10.13,0,0,0-13.64,0L18.63,77.21A10.09,10.09,0,0,0,18,91.45h0a10.28,10.28,0,0,0,7.48,3.29,10,10,0,0,0,6.84-2.65L93.66,36.22l61.39,55.87a10.11,10.11,0,0,0,13.68-14.88ZM39.64,94.62v63.17a5.41,5.41,0,0,0,2.87,4.61,8.56,8.56,0,0,0,4.31,1.09h93.73a8.54,8.54,0,0,0,4.3-1.09,5.45,5.45,0,0,0,2.87-4.61V94.62L93.66,45.47Zm31.77-5H115.8v30.94H71.41Zm-42-69L71,21.9,32,59.45Z"/><rect class="home-b" x="67.63" y="85.22" width="53.09" height="41.55"/></svg>