<svg xmlns="http://www.w3.org/2000/svg" viewBox="0 0 122 133"><defs><style>.message-a{fill:#727270;}.message-b{fill:#67cdfd;}</style></defs><path class="message-a" d="M81.09,83.94c7.64-4.3,12.61-11,12.61-18.45,0-12.9-14.62-23.42-32.69-23.42S28.32,52.59,28.32,65.49,43,88.91,61,88.91a47.71,47.71,0,0,0,10.61-1.25c11.19,8.23,19,1.63,19,1.63-5.36,0-8.13-2.58-9.56-5.35Z"/><path class="message-b" d="M73.06,69.22h0a5.12,5.12,0,1,1,5.06-5.07,5.12,5.12,0,0,1-5.06,5.07Z"/><path class="message-b" d="M60,69.22h0A5.12,5.12,0,1,1,65,64.15,5.12,5.12,0,0,1,60,69.22Z"/><path class="message-b" d="M47.15,69.22h0a5.12,5.12,0,1,1,5.07-5.07,5.13,5.13,0,0,1-5.07,5.07Z"/></svg>