<svg xmlns="http://www.w3.org/2000/svg" width="200" height="200" viewBox="0 0 200 200"><defs><style>.share-a{fill:#272525;}</style></defs><path class="share-a" d="M124.93,75.65a22,22,0,1,0-20.43-14l-24,16.55a21.92,21.92,0,1,0,1,35.25l22.33,15.37A21.89,21.89,0,1,0,111,117.72L89,102.58a21.65,21.65,0,0,0-.42-14l24.19-16.66A21.81,21.81,0,0,0,124.93,75.65Zm0-38.44A16.53,16.53,0,1,1,108.4,53.73,16.54,16.54,0,0,1,124.93,37.21ZM68,112.7A16.52,16.52,0,1,1,84.54,96.18,16.54,16.54,0,0,1,68,112.7Zm56.91,5.39a16.53,16.53,0,1,1-16.53,16.53A16.55,16.55,0,0,1,124.93,118.09Zm-17.67,3.61a22.34,22.34,0,0,0-1.31,2l-20.6-14.17a21,21,0,0,0,1.36-2ZM86.06,83.77a22.71,22.71,0,0,0-1.47-1.89L107.07,66.4c.47.65,1,1.27,1.5,1.87Z"/></svg>