<svg class="sponge" xmlns="http://www.w3.org/2000/svg" width="100%" viewBox="0 0 2693 1675.36">
  <defs>
    <style>
      .a {
        isolation: isolate;
      }

      .b {
        fill: #5fc0bf;
      }

      .c {
        fill: #6ec2dd;
      }

      .d {
        fill: #8dafc2;
      }

      .d, .e {
        mix-blend-mode: multiply;
      }

      .e {
        fill: #416762;
      }

      .f {
        fill: #ffd332;
      }

      .g {
        fill: #ffef2c;
      }

      .h {
        fill: #ffce32;
      }

      .i {
        fill: #f8ac33;
      }

      .j {
        fill: #fff04a;
      }

      .k {
        fill: #f7a833;
      }

      .l {
        fill: #f08131;
      }

      .m {
        fill: #fff;
      }

      .n {
        fill: #f3f9fa;
      }
    </style>
  </defs>
  <g class="a">
    <g>
      <g>
        <path class="b" d="M2179.36,1277.38c-230.5,12.9-432.8,33.26-604.74,51.47-387,41.1-620.2,71.33-675-18.87-79.13-130.31,474.64-259.86,707.34-283.5s-75.15-44.46-260.61-23.64c0,0-213.83,27-465.39,45.79C527.21,1075.08,98.86,1085.2,85.26,981,62,802.74,815.86,821.36,448.25,770.19S504.07,570,974.07,537.49s-121,279.23,577,148.92,902.79,47.11,688.76,114.3-192,206.77,80.82,202.13S2928.54,1235.49,2179.36,1277.38Z" transform="translate(-28.35 81.95)"/>
        <path class="c" d="M1060.18,1337.89s867.87-72.13,902.78-88.41S1353.36,1382.11,1060.18,1337.89Z" transform="translate(-28.35 81.95)"/>
        <path class="c" d="M133,994.7s457.21,52.35,813.21,0S1659.9,975.5,1673.86,979s-640.44,19.2-694.54,27.92S246.39,1111.61,133,994.7Z" transform="translate(-28.35 81.95)"/>
        <path class="c" d="M2089.77,890s50-95.4,165.2-107c47.38-13.53,55.85-38.39,58.17-43.05s-32.58,30.26-57,34.91S2113,783,2089.77,890Z" transform="translate(-28.35 81.95)"/>
        <path class="c" d="M2221.81,1260s371.71-43.63,401.37-113.43C2623.18,1146.52,2654.59,1232,2221.81,1260Z" transform="translate(-28.35 81.95)"/>
      </g>
      <path class="d" d="M1867,1110.42a39.52,39.52,0,0,0-13.36,2.37l28.28-202L1531,865.11s0,.09-.09.13c-13.31,13.73-41.8,4.35-44.62-4.19a3.2,3.2,0,0,1-.09-1.75l-93.64-12.18s-365.11,143.82-365.94,144.11l-3.49,15.76c-3.32,2.62-7.26,3.52-12.85,3.56a58.83,58.83,0,0,1-12.15-.7c-1.33-.29-8.38-4.06-9-3.82L881,1048.63c251.56-18.75,465.39-45.79,465.39-45.79,185.46-20.82,493.26,0,260.61,23.64S820.5,1179.67,899.63,1310c54.79,90.2,288,60,675,18.87a22,22,0,0,0,2-7,23.16,23.16,0,0,0,31.47-30.81,23.14,23.14,0,0,0,34.68-2.66,23.22,23.22,0,0,0,28.2-8.46,22.93,22.93,0,0,0,11.45,3.07,23.24,23.24,0,0,0,23.22-23.22,11.84,11.84,0,0,0-.09-1.29,23.16,23.16,0,0,0,21-15.47,22.87,22.87,0,0,0,13,4,23.16,23.16,0,0,0,23.18-23.18,23.06,23.06,0,0,0,17-7.51,23.16,23.16,0,0,0,35.54-11.2c15.47,3.53,34,.75,43.46-8.41a31.36,31.36,0,0,0,6.14-8.29c.74,0,1.45.08,2.2.08a39,39,0,0,0,0-78Z" transform="translate(-28.35 81.95)"/>
      <g>
        <polygon class="e" points="1819.65 977.02 1843.08 978.23 1259.72 1225.9 772.17 1127.53 1352.69 942.35 1819.65 977.02"/>
        <g>
          <path class="f" d="M816.58,818.07c2,1.31,3.2,3.33,1.84,6.46a14.72,14.72,0,0,1-5.39,6.64l2.63,38.62c11,.69,19.78,11.86,19.78,25.59,0,12.46-7.24,16.74-16.84,17.58l.75,10.73c5.27,3.44,5.64,11.87,1.08,16l5.14,75.18c5.19,3.45,5.57,11.77,1.1,15.93l.32,4.93,458.39,86.1,11.45-226.46Z" transform="translate(-28.35 81.95)"/>
          <path class="g" d="M835.83,850.39S839.92,982.68,863,998.93s348.83,103,361.74,55.19S1237.83,895,1224.17,896,845.34,809.68,835.83,850.39Z" transform="translate(-28.35 81.95)"/>
          <path class="h" d="M1026.67,732.82l-3.5,15.75s15.73,8.34,21.11-2.41S1033.26,732.79,1026.67,732.82Z" transform="translate(-28.35 81.95)"/>
          <polygon class="i" points="1257.03 1203.79 1819.65 977.02 1853.61 734.35 1268.48 977.33 1257.03 1203.79"/>
          <path class="g" d="M1531,606.71s0,.08-.1.12c-13.31,13.71-41.79,4.34-44.63-4.21a3,3,0,0,1,0-1.74l-93.64-12.18L1026.67,732.82c1.59-.63,3.65,2.7,3.84,3.86.25,1.86-1.1,3.86-2,5.38-4.61,7.78-9.34,10-18.22,10.07a58.06,58.06,0,0,1-12.14-.72c-1.34-.28-8.39-4-9.06-3.81l-177,69.74,484.75,78L1882,652.4Z" transform="translate(-28.35 81.95)"/>
          <path class="j" d="M1296.83,881.79s241.54-86.59,220.25-112.63-489.2,40.82-419.16,73.16S1262,894.73,1296.83,881.79Z" transform="translate(-28.35 81.95)"/>
          <path class="h" d="M1265,817.34s-47.47,20.77-36.06,28.37,47.44,35.13,67.85,22.79S1319.18,796.58,1265,817.34Z" transform="translate(-28.35 81.95)"/>
          <path class="k" d="M1182.19,908.49c-14.82,5.7-10.66,15.16-11.86,29.7-.83,9.61-1.14,13.32,7.74,18.29,10,5.57,25.47,9.48,35.89,3.17C1234.4,947.3,1236.31,887.75,1182.19,908.49Z" transform="translate(-28.35 81.95)"/>
          <path class="h" d="M1381.83,634.89s-33.21,4.75-30.36,13.3,31.35,17.92,44.62,4.21S1395.67,632.11,1381.83,634.89Z" transform="translate(-28.35 81.95)"/>
          <path class="h" d="M1720.87,669.47s17.58,22.53,26.58,23.37,44.2-11.77,37-29.46S1723.89,655.72,1720.87,669.47Z" transform="translate(-28.35 81.95)"/>
          <path class="h" d="M1349.77,848.12s-16.71,2.4-15.3,6.68,15.78,9,22.44,2.11S1356.73,846.73,1349.77,848.12Z" transform="translate(-28.35 81.95)"/>
          <path class="h" d="M946.88,811.08s-16.69,2.38-15.25,6.67,15.74,9,22.41,2.13S953.83,809.68,946.88,811.08Z" transform="translate(-28.35 81.95)"/>
          <path class="k" d="M953.49,914.09c-10.17,6.19-19.19,16.23-12.69,28.63,6,11.44,15.82,10.5,19.86-2C967.32,919.84,960.44,909.84,953.49,914.09Z" transform="translate(-28.35 81.95)"/>
          <path class="k" d="M1226.55,1078.1c-7.52,9.24-18.67,16.8-30.09,8.68-10.5-7.49-8.25-17.09,4.71-19.37C1222.71,1063.61,1231.71,1071.8,1226.55,1078.1Z" transform="translate(-28.35 81.95)"/>
          <path class="k" d="M1122.18,921.18a13.29,13.29,0,0,0,1.54-1.69c6.42-8.33-4.53-19.38-10.88-24.11-8.9-6.66-11.67,11.52-10.9,16.55C1103.35,921,1114.85,927.71,1122.18,921.18Z" transform="translate(-28.35 81.95)"/>
          <path class="k" d="M1012.18,951.14a9.14,9.14,0,0,0-5.65-3.1c-2.19-.33-5.51-.84-7.65-.33a81.94,81.94,0,0,0-8,4c-.11,2.08-.13,4.12-.09,4.4,1.4,9.13,12.92,15.8,20.24,9.27a15.15,15.15,0,0,0,1.55-1.7A10,10,0,0,0,1012.18,951.14Z" transform="translate(-28.35 81.95)"/>
          <path class="k" d="M900.26,961.48a4.74,4.74,0,0,0-2.8-1.57,12.32,12.32,0,0,0-3.87-.16c-.42.12-4,2-4,2a14.38,14.38,0,0,0,0,2.22c.71,4.57,6.49,7.91,10.15,4.64a8.06,8.06,0,0,0,.77-.85A5,5,0,0,0,900.26,961.48Z" transform="translate(-28.35 81.95)"/>
          <path class="h" d="M1077.61,720.63s-16.7,2.38-15.28,6.68,15.74,9,22.44,2.11S1084.55,719.23,1077.61,720.63Z" transform="translate(-28.35 81.95)"/>
          <path class="h" d="M978.72,770.8s-16.71,2.39-15.27,6.69,15.76,9,22.43,2.1S985.67,769.41,978.72,770.8Z" transform="translate(-28.35 81.95)"/>
          <path class="h" d="M885.64,804.77s-16.7,2.39-15.25,6.68,15.76,9,22.42,2.12S892.59,803.37,885.64,804.77Z" transform="translate(-28.35 81.95)"/>
          <path class="h" d="M1290.81,729.61s-16.69,2.37-15.26,6.68,15.75,9,22.44,2.12S1297.77,728.2,1290.81,729.61Z" transform="translate(-28.35 81.95)"/>
          <path class="h" d="M1191.76,749.16s-11.74,1.67-10.73,4.68,11.06,6.33,15.75,1.5S1196.62,748.17,1191.76,749.16Z" transform="translate(-28.35 81.95)"/>
          <path class="h" d="M1526.59,682.18s-40.71,5.82-37.21,16.28,38.39,21.95,54.66,5.16S1543.52,678.75,1526.59,682.18Z" transform="translate(-28.35 81.95)"/>
          <path class="h" d="M1655.46,673.71s-16.71,2.39-15.29,6.68,15.77,9,22.46,2.11S1662.4,672.32,1655.46,673.71Z" transform="translate(-28.35 81.95)"/>
          <path class="h" d="M1172,791.57s-24.72,5.71-13.32,14.26,38,16.23,39.89,7.16S1182.44,794.43,1172,791.57Z" transform="translate(-28.35 81.95)"/>
          <path class="h" d="M1253.46,659s8,22.84,20.78,16.47,42-18.21,34.7-24S1260.68,651,1253.46,659Z" transform="translate(-28.35 81.95)"/>
          <path class="h" d="M1432.62,800.5s8,22.84,20.75,16.47,42-18.23,34.72-24S1439.83,792.43,1432.62,800.5Z" transform="translate(-28.35 81.95)"/>
          <path class="h" d="M1594,668.43s19.57-16.14,5.54-18.69-41.26,2.45-38.9,11.39S1583.42,670.53,1594,668.43Z" transform="translate(-28.35 81.95)"/>
          <path class="h" d="M1504.35,648.71c8.84-4.93,18.52-12,8.5-13.78-8.08-1.47-36.63-2.1-38.82,9.08-2.6,13.36,11,12.3,20,9.68A73.36,73.36,0,0,0,1504.35,648.71Z" transform="translate(-28.35 81.95)"/>
          <path class="h" d="M1368.18,785.75s22.7-7,8.67-9.54-41.2,2.44-38.86,11.4S1357.54,787.86,1368.18,785.75Z" transform="translate(-28.35 81.95)"/>
          <path class="h" d="M1167.15,716.85s19.56-16.12,5.52-18.69-41.23,2.46-38.88,11.4S1156.53,719,1167.15,716.85Z" transform="translate(-28.35 81.95)"/>
          <path class="h" d="M1567.07,744.43c3.27.2,6.86-1.11,10-1.32,6.75-.47,14.14,2,20.45-1.41,5.15-2.77,11.42-12.46,1.92-14.19a60.84,60.84,0,0,0-26.06,1.51c-3.33.91-7.37,2-10.12,4.11-3.8,3-2.87,9.31,1.64,10.87A7.94,7.94,0,0,0,1567.07,744.43Z" transform="translate(-28.35 81.95)"/>
          <path class="l" d="M1385.71,989.07s-10.85,2.39-9.93,6.68,10.23,9,14.56,2.11S1390.2,987.66,1385.71,989.07Z" transform="translate(-28.35 81.95)"/>
          <path class="l" d="M1321.41,1008.63s-7.59,1.67-7,4.69,7.16,6.3,10.21,1.47S1324.58,1007.64,1321.41,1008.63Z" transform="translate(-28.35 81.95)"/>
          <path class="l" d="M1482.24,990.16s-26.43,5.83-24.13,16.3,24.87,21.93,35.45,5.16S1493.21,986.75,1482.24,990.16Z" transform="translate(-28.35 81.95)"/>
          <path class="l" d="M1742.59,843.29s12.68-16.14,3.59-18.68S1719.42,827.05,1721,836,1735.7,845.4,1742.59,843.29Z" transform="translate(-28.35 81.95)"/>
          <path class="l" d="M1820.38,873c.94-1.89.62-4.55,1.16-6.48,1.17-4.26,5.21-7.8,3.58-12.87-1.32-4.11-8.85-11.48-12.71-6.39-3.44,4.5-5,10.5-4.85,16.27,0,2.33,0,5.16,1.38,7.6,1.89,3.42,8,5.19,10.49,3.06A3.7,3.7,0,0,0,1820.38,873Z" transform="translate(-28.35 81.95)"/>
          <path class="h" d="M1075.45,776.78c2.82.17,5.92-1,8.56-1.14,5.82-.41,12.15,1.7,17.6-1.23,4.43-2.36,9.79-10.7,1.65-12.19a51.87,51.87,0,0,0-22.41,1.32c-2.86.76-6.36,1.65-8.68,3.51a5.46,5.46,0,0,0,1.37,9.36A8.5,8.5,0,0,0,1075.45,776.78Z" transform="translate(-28.35 81.95)"/>
          <path class="h" d="M1038,832.52s19.57-16.13,5.54-18.69-41.22,2.44-38.87,11.41S1027.38,834.63,1038,832.52Z" transform="translate(-28.35 81.95)"/>
          <path class="h" d="M1441.26,737.26s19.55-16.13,5.53-18.68-41.23,2.43-38.88,11.4S1430.65,739.38,1441.26,737.26Z" transform="translate(-28.35 81.95)"/>
          <path class="l" d="M1484.62,934.59a11.9,11.9,0,0,0,2.27-2.27c5.68-7.23,9.35-38.79-4.37-41.31-14-2.55-33.06,28.21-30.71,37.16C1455.12,940.91,1475.44,941.82,1484.62,934.59Z" transform="translate(-28.35 81.95)"/>
          <path class="k" d="M1058.36,1006.82c-1.63-8.77-7-14.64-16.21-13.06C1000.72,1000.93,1062.83,1030.88,1058.36,1006.82Z" transform="translate(-28.35 81.95)"/>
          <path class="k" d="M943.9,1005.83c.24-.08.48-.16.71-.22,18.72-5,32.56,34.46,14.59,41.5-14.94,5.84-22.87-4.15-24.36-14.88C933.67,1024,934.18,1009.09,943.9,1005.83Z" transform="translate(-28.35 81.95)"/>
          <path class="k" d="M1049.78,921.32c-8,7-12.74,5.68-16.1,1.86s-4-8.71,3.94-15.72,17.17-9.57,20.52-5.75S1057.74,914.3,1049.78,921.32Z" transform="translate(-28.35 81.95)"/>
          <path class="k" d="M858,925.59c-4.07-3.7-2.32-7.69,1.11-11.44s7.21-5.89,11.31-2.18,4.58,9.75,1.18,13.53S862.09,929.3,858,925.59Z" transform="translate(-28.35 81.95)"/>
          <path class="l" d="M1543.92,992.48c-4.07-3.7-2.33-7.69,1.09-11.46s7.25-5.87,11.32-2.17,4.59,9.76,1.17,13.54S1548,996.19,1543.92,992.48Z" transform="translate(-28.35 81.95)"/>
          <path class="k" d="M1110.45,1047.85c-5.16-9.26-2.88-13.62,1.54-16.12s9.34-2.14,14.54,7.13,5.8,18.78,1.35,21.27S1115.63,1057.13,1110.45,1047.85Z" transform="translate(-28.35 81.95)"/>
          <path class="k" d="M1107.87,973.3c0,11.16-5.93,12.77-17.08,12.77s-17.09-1.61-17.09-12.77a20.19,20.19,0,0,1,20.19-20.2C1105.05,953.1,1107.87,962.14,1107.87,973.3Z" transform="translate(-28.35 81.95)"/>
          <path class="k" d="M866.22,998.79c0,5.56-3,6.39-8.55,6.39s-8.52-.83-8.52-6.39a10.09,10.09,0,0,1,10.08-10.1C864.81,988.69,866.22,993.21,866.22,998.79Z" transform="translate(-28.35 81.95)"/>
          <path class="k" d="M867.22,850.79a.34.34,0,0,1,.06-.12c11.93-1.46,52.86-11.42,60,3.44,6.33,13.12-10.76,40.06-30.07,31.65C879.1,877.86,857.36,876.59,867.22,850.79Z" transform="translate(-28.35 81.95)"/>
          <path class="k" d="M1226.35,1003.54c-2.32-1.67-5.64-2.44-10.55-1.91-5.85.62-34.42-.62-34.83,9.31-.43,10.13,1,20.88,8.86,26.58s46.41.51,43.88-10.53C1231.52,1017.49,1232.09,1007.7,1226.35,1003.54Z" transform="translate(-28.35 81.95)"/>
          <path class="l" d="M1320.13,926.3s-25-20.19,26.9-30.92,39.55-.11,39.55,15.46S1347.66,941.4,1320.13,926.3Z" transform="translate(-28.35 81.95)"/>
          <path class="l" d="M1718.65,902s-9.85-8,10.62-12.2,15.6,0,15.6,6.11S1729.51,908,1718.65,902Z" transform="translate(-28.35 81.95)"/>
          <path class="l" d="M1507.74,839.3s-9.85-8,10.63-12.2,15.59-.05,15.59,6.1S1518.6,845.24,1507.74,839.3Z" transform="translate(-28.35 81.95)"/>
          <path class="l" d="M1708.36,775.77c-5.41-9.13-17.45-13.6-21.21-9.75-4.27,4.4-10.66,4,6.95,15.25C1700.81,785.55,1702.32,778.2,1708.36,775.77Z" transform="translate(-28.35 81.95)"/>
          <path class="l" d="M1644,917.87s-35.92,21.62-39.33,8.43-2.83-27.49,19.66-35.29S1665.74,907.44,1644,917.87Z" transform="translate(-28.35 81.95)"/>
          <path class="l" d="M1814,717.9s-3.5-.7-8.28-1.41c-7.07-1.08-23.57,16.37-24.5,22.62-2.38,16.09,13.84,22.18,25.8,14.26C1834.87,734.91,1826.09,719.87,1814,717.9Z" transform="translate(-28.35 81.95)"/>
          <path class="l" d="M1324.13,1060.74s-16.83-2.75-20.44,0-16,33.75,0,38.81S1326,1069.39,1324.13,1060.74Z" transform="translate(-28.35 81.95)"/>
          <path class="l" d="M1624.34,824.53s-19,8.29-12.67,15.05,28.41,7.39,28.43-4S1640.77,818.55,1624.34,824.53Z" transform="translate(-28.35 81.95)"/>
        </g>
        <path class="m" d="M855.66,1049.89A33.89,33.89,0,1,1,821.77,1016,33.91,33.91,0,0,1,855.66,1049.89Z" transform="translate(-28.35 81.95)"/>
        <path class="m" d="M916.79,1060.72a33.88,33.88,0,1,1-33.87-33.88A33.89,33.89,0,0,1,916.79,1060.72Z" transform="translate(-28.35 81.95)"/>
        <path class="m" d="M874.59,1090.23a33.89,33.89,0,1,1-33.88-33.89A33.89,33.89,0,0,1,874.59,1090.23Z" transform="translate(-28.35 81.95)"/>
        <path class="m" d="M811.08,1067.64a23.21,23.21,0,1,1-23.2-23.19A23.2,23.2,0,0,1,811.08,1067.64Z" transform="translate(-28.35 81.95)"/>
        <path class="m" d="M1308.58,1146.8a23.2,23.2,0,1,1-23.18-23.19A23.18,23.18,0,0,1,1308.58,1146.8Z" transform="translate(-28.35 81.95)"/>
        <path class="m" d="M1275.67,1160.83a23.21,23.21,0,1,1-23.2-23.19A23.22,23.22,0,0,1,1275.67,1160.83Z" transform="translate(-28.35 81.95)"/>
        <path class="m" d="M1265.42,1179a23.2,23.2,0,1,1-23.19-23.19A23.2,23.2,0,0,1,1265.42,1179Z" transform="translate(-28.35 81.95)"/>
        <path class="m" d="M1304.33,1170a23.2,23.2,0,1,1-23.18-23.18A23.19,23.19,0,0,1,1304.33,1170Z" transform="translate(-28.35 81.95)"/>
        <path class="m" d="M1382.83,1131a23.2,23.2,0,1,1-23.18-23.19A23.2,23.2,0,0,1,1382.83,1131Z" transform="translate(-28.35 81.95)"/>
        <path class="m" d="M1453,1098.82a23.2,23.2,0,1,1-23.19-23.19A23.2,23.2,0,0,1,1453,1098.82Z" transform="translate(-28.35 81.95)"/>
        <path class="m" d="M1543.11,1067.64a23.19,23.19,0,1,1-23.18-23.19A23.18,23.18,0,0,1,1543.11,1067.64Z" transform="translate(-28.35 81.95)"/>
        <path class="m" d="M1576.8,1039.85a23.2,23.2,0,1,1-23.18-23.19A23.19,23.19,0,0,1,1576.8,1039.85Z" transform="translate(-28.35 81.95)"/>
        <path class="m" d="M1610.48,1012.07a23.2,23.2,0,1,1-23.18-23.19A23.19,23.19,0,0,1,1610.48,1012.07Z" transform="translate(-28.35 81.95)"/>
        <ellipse class="m" cx="1620.97" cy="984.29" rx="23.19" ry="23.2" transform="matrix(1, 0, 0, 1, -31.48, 87.12)"/>
        <path class="m" d="M1677.85,956.5a23.2,23.2,0,1,1-23.19-23.18A23.2,23.2,0,0,1,1677.85,956.5Z" transform="translate(-28.35 81.95)"/>
        <path class="m" d="M1431,1080a23.2,23.2,0,1,1-23.19-23.2A23.19,23.19,0,0,1,1431,1080Z" transform="translate(-28.35 81.95)"/>
        <path class="m" d="M1647.46,1016a23.2,23.2,0,1,1-23.21-23.19A23.2,23.2,0,0,1,1647.46,1016Z" transform="translate(-28.35 81.95)"/>
        <path class="m" d="M1576.8,1060.72a23.2,23.2,0,1,1-23.18-23.19A23.2,23.2,0,0,1,1576.8,1060.72Z" transform="translate(-28.35 81.95)"/>
        <path class="m" d="M1610.48,1042.85a23.2,23.2,0,1,1-23.18-23.19A23.18,23.18,0,0,1,1610.48,1042.85Z" transform="translate(-28.35 81.95)"/>
        <path class="m" d="M1674.91,1008.54a23.19,23.19,0,1,1-23.19-23.2A23.2,23.2,0,0,1,1674.91,1008.54Z" transform="translate(-28.35 81.95)"/>
        <path class="m" d="M1702.31,979.7a23.2,23.2,0,1,1-23.19-23.2A23.21,23.21,0,0,1,1702.31,979.7Z" transform="translate(-28.35 81.95)"/>
        <path class="m" d="M1705.62,1001.35a23.2,23.2,0,1,1-23.2-23.19A23.21,23.21,0,0,1,1705.62,1001.35Z" transform="translate(-28.35 81.95)"/>
        <path class="m" d="M1727.81,976.93a23.19,23.19,0,1,1-23.19-23.2A23.18,23.18,0,0,1,1727.81,976.93Z" transform="translate(-28.35 81.95)"/>
        <path class="m" d="M1762.67,965.37a23.2,23.2,0,1,1-23.19-23.19A23.18,23.18,0,0,1,1762.67,965.37Z" transform="translate(-28.35 81.95)"/>
        <path class="m" d="M1785.85,942.18A23.19,23.19,0,1,1,1762.67,919,23.18,23.18,0,0,1,1785.85,942.18Z" transform="translate(-28.35 81.95)"/>
        <path class="m" d="M1779.33,913.12a23.19,23.19,0,1,1-23.18-23.19A23.18,23.18,0,0,1,1779.33,913.12Z" transform="translate(-28.35 81.95)"/>
        <path class="m" d="M1797.49,919.18A23.21,23.21,0,1,1,1774.28,896,23.21,23.21,0,0,1,1797.49,919.18Z" transform="translate(-28.35 81.95)"/>
        <path class="m" d="M1816.53,939.12a23.2,23.2,0,1,1-23.19-23.19A23.19,23.19,0,0,1,1816.53,939.12Z" transform="translate(-28.35 81.95)"/>
        <path class="m" d="M1848.7,880a23.2,23.2,0,1,1-23.2-23.19A23.19,23.19,0,0,1,1848.7,880Z" transform="translate(-28.35 81.95)"/>
        <path class="m" d="M943.21,1052.14A23.2,23.2,0,1,1,920,1029,23.18,23.18,0,0,1,943.21,1052.14Z" transform="translate(-28.35 81.95)"/>
        <path class="m" d="M1014,1066a23.19,23.19,0,1,1-23.19-23.18A23.18,23.18,0,0,1,1014,1066Z" transform="translate(-28.35 81.95)"/>
        <path class="m" d="M1084.79,1080a23.19,23.19,0,1,1-23.18-23.2A23.18,23.18,0,0,1,1084.79,1080Z" transform="translate(-28.35 81.95)"/>
        <path class="m" d="M1155.59,1093.86a23.19,23.19,0,1,1-23.18-23.19A23.2,23.2,0,0,1,1155.59,1093.86Z" transform="translate(-28.35 81.95)"/>
        <path class="m" d="M1226.38,1107.77a23.2,23.2,0,1,1-23.19-23.19A23.19,23.19,0,0,1,1226.38,1107.77Z" transform="translate(-28.35 81.95)"/>
        <path class="m" d="M1110.68,1170a23.2,23.2,0,1,1-23.19-23.18A23.19,23.19,0,0,1,1110.68,1170Z" transform="translate(-28.35 81.95)"/>
        <path class="m" d="M1178.79,1180.47a23.19,23.19,0,1,1-23.19-23.19A23.2,23.2,0,0,1,1178.79,1180.47Z" transform="translate(-28.35 81.95)"/>
        <path class="m" d="M1297.17,1121.68a23.2,23.2,0,1,1-23.18-23.2A23.18,23.18,0,0,1,1297.17,1121.68Z" transform="translate(-28.35 81.95)"/>
        <path class="m" d="M1275.72,1131a39,39,0,1,1-39-39A39,39,0,0,1,1275.72,1131Z" transform="translate(-28.35 81.95)"/>
        <path class="m" d="M1359.19,1117.05a39,39,0,1,1-39-39A39,39,0,0,1,1359.19,1117.05Z" transform="translate(-28.35 81.95)"/>
        <path class="m" d="M1390,1076.14a39,39,0,1,1-39-39A39,39,0,0,1,1390,1076.14Z" transform="translate(-28.35 81.95)"/>
        <path class="m" d="M1679.12,957.9a39,39,0,1,1-39-39A39,39,0,0,1,1679.12,957.9Z" transform="translate(-28.35 81.95)"/>
        <path class="m" d="M1756.14,908.83a60.75,60.75,0,1,1-60.74-60.75A60.74,60.74,0,0,1,1756.14,908.83Z" transform="translate(-28.35 81.95)"/>
        <path class="m" d="M1820,871.63a39,39,0,1,1-39-39A39,39,0,0,1,1820,871.63Z" transform="translate(-28.35 81.95)"/>
        <path class="m" d="M1837.83,911.79a30.26,30.26,0,1,1-30.25-30.25A30.27,30.27,0,0,1,1837.83,911.79Z" transform="translate(-28.35 81.95)"/>
        <path class="m" d="M1595.12,1001.35a30.25,30.25,0,1,1-30.23-30.25A30.25,30.25,0,0,1,1595.12,1001.35Z" transform="translate(-28.35 81.95)"/>
        <path class="m" d="M1474.59,1063.59a30.27,30.27,0,1,1-30.26-30.25A30.27,30.27,0,0,1,1474.59,1063.59Z" transform="translate(-28.35 81.95)"/>
        <path class="m" d="M1553.6,1030.21c0,23.69-22.22,42.9-49.58,42.9a44.54,44.54,0,0,1-39.94-64.31C1482.78,970.72,1553.6,986.67,1553.6,1030.21Z" transform="translate(-28.35 81.95)"/>
        <path class="m" d="M1906,891a39,39,0,1,1-39-39A39,39,0,0,1,1906,891Z" transform="translate(-28.35 81.95)"/>
        <path class="m" d="M1867.76,919.21c-.36,6.64-3.13,13.26-9.06,19-14.4,14-50.42,13.22-63.53-2.63a27.65,27.65,0,0,1-5.67-16.45,39,39,0,0,1,39-39C1849.34,880.16,1868.83,899.79,1867.76,919.21Z" transform="translate(-28.35 81.95)"/>
        <path class="m" d="M1242.22,1170a39,39,0,1,1-39-39A39,39,0,0,1,1242.22,1170Z" transform="translate(-28.35 81.95)"/>
        <path class="m" d="M921.94,1115.18a39,39,0,1,1-39-39A39,39,0,0,1,921.94,1115.18Z" transform="translate(-28.35 81.95)"/>
        <path class="m" d="M1006.64,1131a39,39,0,1,1-39-39A39,39,0,0,1,1006.64,1131Z" transform="translate(-28.35 81.95)"/>
        <path class="m" d="M1208,1131a39,39,0,1,1-39-39A39,39,0,0,1,1208,1131Z" transform="translate(-28.35 81.95)"/>
        <path class="m" d="M1140.84,1105.18a39,39,0,1,1-39-39A39,39,0,0,1,1140.84,1105.18Z" transform="translate(-28.35 81.95)"/>
        <path class="m" d="M983.18,1083.77a39,39,0,1,1-39-39A39,39,0,0,1,983.18,1083.77Z" transform="translate(-28.35 81.95)"/>
        <path class="m" d="M1076,1084.57a39,39,0,1,1-39-39A39,39,0,0,1,1076,1084.57Z" transform="translate(-28.35 81.95)"/>
        <path class="m" d="M1067.76,1084.57a39,39,0,1,1-39-39A39,39,0,0,1,1067.76,1084.57Z" transform="translate(-28.35 81.95)"/>
        <path class="m" d="M1033.26,1102.62a39,39,0,1,1-39-39A39,39,0,0,1,1033.26,1102.62Z" transform="translate(-28.35 81.95)"/>
        <path class="m" d="M1062.21,1144.86a39,39,0,1,1-39-39A39,39,0,0,1,1062.21,1144.86Z" transform="translate(-28.35 81.95)"/>
        <path class="m" d="M967.7,1144.86a39,39,0,1,1-39-39A39,39,0,0,1,967.7,1144.86Z" transform="translate(-28.35 81.95)"/>
        <path class="m" d="M1096.08,1131a39,39,0,1,1-39-39A39,39,0,0,1,1096.08,1131Z" transform="translate(-28.35 81.95)"/>
        <path class="m" d="M1169.89,1143.94a39,39,0,1,1-39-39A39,39,0,0,1,1169.89,1143.94Z" transform="translate(-28.35 81.95)"/>
        <path class="m" d="M1227.1,1154.2a39,39,0,1,1-39-39A39,39,0,0,1,1227.1,1154.2Z" transform="translate(-28.35 81.95)"/>
        <path class="m" d="M1419.85,1110a32,32,0,1,1-32-32A32,32,0,0,1,1419.85,1110Z" transform="translate(-28.35 81.95)"/>
        <path class="m" d="M1506.57,1078.33a32,32,0,1,1-32-32A32,32,0,0,1,1506.57,1078.33Z" transform="translate(-28.35 81.95)"/>
        <path class="m" d="M1956.67,679.69c-75.9,7.6-82.07,13.76-89.65,89.68-7.63-75.92-13.78-82.08-89.68-89.68,75.9-7.6,82.05-13.76,89.68-89.66C1874.6,665.93,1880.77,672.09,1956.67,679.69Z" transform="translate(-28.35 81.95)"/>
        <path class="m" d="M972.18,799.51C907.31,806,902,811.29,895.52,876.2c-6.5-64.91-11.76-70.18-76.66-76.69,64.9-6.49,70.16-11.75,76.66-76.66C902,787.76,907.31,793,972.18,799.51Z" transform="translate(-28.35 81.95)"/>
        <path class="m" d="M1348.47,602.55c-37.12,3.71-40.15,6.73-43.86,43.86-3.73-37.13-6.76-40.15-43.87-43.86,37.11-3.72,40.14-6.73,43.87-43.87C1308.32,595.82,1311.35,598.83,1348.47,602.55Z" transform="translate(-28.35 81.95)"/>
        <path class="m" d="M1067,880c-37.12,3.71-40.14,6.73-43.87,43.86-3.71-37.13-6.73-40.15-43.86-43.86,37.13-3.72,40.15-6.73,43.86-43.86C1026.9,873.31,1029.92,876.32,1067,880Z" transform="translate(-28.35 81.95)"/>
      </g>
    </g>
    <g>
      <path class="n" d="M246.25,173.06c-5.76-32.68-17-64.63-32.36-94.65l-12.71-21.9L198,51.05l-3.85-5.37L186.33,35,178.5,24.28c-2.64-3.73-5.15-6-7.75-9.09L155.31-2.19c-2.26-2.37-1-1-1.62-1.62l-.59-.55L152-5.44l-2.34-2.13-4.75-4.23-9.52-8.41c-6.12-5.87-13-10.75-19.94-15.67-7-4.77-13.43-10.35-20.9-14.33L72.6-62.88A360,360,0,0,0,28.35-81.95V-48q14.81,6.08,29.08,13.43C84.32-20.07,108.88-1,130.81,20,152.39,42.52,171,66.56,185.59,93.57c14,27.15,24.77,55.87,30.88,85.5,5.52,29.68,7.53,59.81,5.1,89.37-3.19,29.42-9,58.32-19.65,85.16-10.78,26.64-23.75,52.18-40.85,74-7.74,11.61-17.52,21.29-26.49,31.47-4.14,5-9.82,9.28-14.63,13.9-5.09,4.41-9.77,9.33-15.08,13.21A322.89,322.89,0,0,1,28.35,531v13.38a334.74,334.74,0,0,0,87.43-45.73c5.89-4,10.51-8.44,15.83-12.7l7.83-6.47,3.93-3.27a11.14,11.14,0,0,0,1.06-1l1.44-1.43,1.89-1.93c9.88-10.3,20.71-20.23,29.44-32.16,19.17-22.58,34.24-49.25,47-77.49,12.54-28.41,20.28-59.39,25-91.32C253.09,238.75,251.42,205.79,246.25,173.06Z" transform="translate(-28.35 81.95)"/>
      <path class="n" d="M183.72,68.17A158.18,158.18,0,0,0,28.35,27.92v304.3a158.25,158.25,0,0,0,155.37-264Z" transform="translate(-28.35 81.95)"/>
      <path class="n" d="M124.28,326.73a68.27,68.27,0,0,0-95.93-.65V424a68.32,68.32,0,0,0,95.93-97.29Z" transform="translate(-28.35 81.95)"/>
    </g>
    <g>
      <path class="n" d="M2721.35,605.34a67.84,67.84,0,0,1-10.17.18c-9.79-.63-19.88-.58-29.64-2.55-19.76-2.4-39.46-8.82-58.49-16.88-19.09-8.29-36.82-20-53.41-33.39a243.51,243.51,0,0,1-43-48.16,242.09,242.09,0,0,1-27.82-59.3c-6.29-21.11-9.08-43.33-9.61-65.19.53-22.5,3.32-44.21,9.61-65.44a240.89,240.89,0,0,1,27.82-59.31,243.79,243.79,0,0,1,43-48.16c16.59-13.36,34.32-25.1,53.41-33.38,19.06-8.08,38.67-14.47,58.56-16.9,9.83-2,19.78-1.91,29.5-2.53a67.66,67.66,0,0,1,10.24.17V141.7l-2.34-.22-3.67-.34c.36,0-1,0-1,0h-1.46l-1.93,0c-10.32.21-20.87-.25-31.4,1.38-21.27,1.73-42.55,7.65-63.46,15.53-20.91,8.09-40.62,19.94-59.28,33.8-18.32,14.39-34.29,32-48.32,51.34a242.35,242.35,0,0,0-31.74,64.73L2472,325.55l-1.17,4.43-.79,4.69-1.48,9.42-1.43,9.43c-.57,3.27-.44,5.7-.7,8.6l-1,16.72c0,2.35,0,1,0,1.65l0,.58.05,1.14.13,2.28.26,4.57.51,9.14a134.85,134.85,0,0,0,2.18,18.14c1.18,6,1.57,12.12,3.37,18l4.68,17.64c7.5,23.12,17.93,45.17,31.72,64.76,14,19.35,30.05,36.94,48.3,51.41,18.69,13.87,38.42,25.72,59.33,33.81,21.06,7.9,41.82,13.74,63.83,15.57,11.18,1.66,20.71,1.09,30.65,1.31h4.29l3.85-.34,2.71-.24Z" transform="translate(-28.35 81.95)"/>
      <path class="n" d="M2715,328.5a114,114,0,1,1-114-114A114.05,114.05,0,0,1,2715,328.5Z" transform="translate(-28.35 81.95)"/>
      <path class="n" d="M2721.35,183.59a49.24,49.24,0,1,0,0,86.88Z" transform="translate(-28.35 81.95)"/>
    </g>
    <g>
      <path class="n" d="M551.75,1404.57s-.21,4.41-.54,12.68c-.15,2-.06,4.38-.42,6.91s-.74,5.32-1.18,8.32-.78,6.25-1.51,9.64-1.71,6.94-2.65,10.72a191.79,191.79,0,0,1-22.25,51.45,196.91,196.91,0,0,1-49.87,53.57,190.12,190.12,0,0,1-81.19,33.43c-3.9.78-7.9.86-11.92,1.3l-6.05.55-3,.27h-3.4c-7.87-.18-15.39.27-24.23-1-17.38-1.45-33.83-6.08-50.46-12.33s-32.15-15.76-46.91-26.72c-14.46-11.45-27.12-25.37-38.22-40.66a190.88,190.88,0,0,1-25-51.22l-3.73-13.93c-1.41-4.62-1.74-9.46-2.64-14.2a99.31,99.31,0,0,1-1.73-14.35l-.44-7.23-.21-3.61-.09-1.8,0-.9,0-.46a6,6,0,0,1,0-1.31l.78-13.22a65.37,65.37,0,0,1,.55-6.79l1.15-7.47,1.18-7.44.61-3.72.9-3.5,3.71-13.94a191.91,191.91,0,0,1,25.1-51.19c11.1-15.27,23.72-29.23,38.21-40.6,14.78-11,30.38-20.33,46.88-26.73,16.53-6.23,33.35-10.9,50.17-12.28,8.33-1.29,16.7-.92,24.83-1.09l1.54,0h1.15a6.38,6.38,0,0,1,.82,0l2.91.27,5.75.55c3.87.43,7.54.48,11.51,1.26a189.38,189.38,0,0,1,81.53,33.43,195.93,195.93,0,0,1,49.9,53.55,190.92,190.92,0,0,1,22.27,51.43q1.41,5.68,2.65,10.72c.73,3.38,1,6.64,1.51,9.62s.82,5.76,1.18,8.29.27,4.88.42,7c.33,8.3.54,12.75.54,12.75Zm-1.89,0s-.21-4.39-.67-12.61c-.15-2.05-.09-4.36-.46-6.87s-.83-5.23-1.29-8.17-.81-6.15-1.57-9.49-1.77-6.82-2.72-10.54c-4.2-14.7-10.74-32.48-22.77-50.25a177.91,177.91,0,0,0-129.25-79.41c-3.69-.57-7.57-.47-11.39-.76-3.8-.07-7.8-.65-11.5-.29-7.72.49-15.56.44-23.36,2-15.68,1.9-31.2,7-46.28,13.36s-29.1,15.83-42.24,26.4a193,193,0,0,0-34,38.07,190.83,190.83,0,0,0-22,46.9c-5,16.78-7.19,34-7.59,51.74.4,17.28,2.6,34.87,7.59,51.55a191.17,191.17,0,0,0,22,46.9,193.31,193.31,0,0,0,34,38.07c13.14,10.58,27.15,19.86,42.24,26.41,15,6.37,30.64,11.44,46.26,13.35,7.7,1.56,15.66,1.52,23.42,2,3.76.33,7.68-.22,11.46-.31,3.8-.26,7.61-.16,11.34-.73a178,178,0,0,0,129.3-79.41c12-17.79,18.57-35.54,22.77-50.26,1-3.7,1.88-7.23,2.72-10.54s1.09-6.52,1.57-9.46.89-5.65,1.29-8.15.31-4.85.46-6.9c.46-8.26.67-12.66.67-12.66Z" transform="translate(-28.35 81.95)"/>
      <path class="n" d="M371.27,1363.86a90.19,90.19,0,1,1-90.16-90.18A90.17,90.17,0,0,1,371.27,1363.86Z" transform="translate(-28.35 81.95)"/>
      <path class="n" d="M396.94,1283.62a38.94,38.94,0,1,1-39-38.95A38.94,38.94,0,0,1,396.94,1283.62Z" transform="translate(-28.35 81.95)"/>
    </g>
    <g>
      <path class="n" d="M933.39,291.65s-.08,2.08-.25,6c-.06,1,0,2.06-.18,3.25s-.37,2.5-.57,3.92-.37,2.94-.71,4.54l-1.25,5A90.4,90.4,0,0,1,920,338.61a92.77,92.77,0,0,1-23.49,25.22,89.59,89.59,0,0,1-38.22,15.74c-1.84.37-3.73.4-5.62.62l-2.84.25-1.43.13h-1.6c-3.7-.09-7.25.13-11.41-.49a88,88,0,0,1-23.77-5.8A95.08,95.08,0,0,1,789.5,361.7a96.69,96.69,0,0,1-18-19.15,90.05,90.05,0,0,1-11.8-24.11L758,311.88a65.67,65.67,0,0,1-1.25-6.69,51.11,51.11,0,0,1-.81-6.76l-.19-3.4-.1-1.7-.05-.85,0-.43v-.82l.38-6.23c.1-1.08.05-2,.26-3.2l.53-3.51.55-3.51.29-1.74.44-1.65,1.74-6.57a90.49,90.49,0,0,1,11.82-24.1A87.06,87.06,0,0,1,811.6,209a87.78,87.78,0,0,1,23.63-5.78,86.88,86.88,0,0,1,11.69-.52h1.26l.38,0,1.37.13,2.71.25c1.83.21,3.55.23,5.43.59a89.45,89.45,0,0,1,38.39,15.75A92.45,92.45,0,0,1,920,244.66a89.83,89.83,0,0,1,10.48,24.22q.66,2.67,1.25,5.05c.33,1.59.48,3.12.71,4.52s.39,2.71.56,3.91.13,2.29.19,3.27c.17,3.91.25,6,.25,6Zm-.88,0s-.11-2.06-.32-5.94c-.07-1-.05-2.05-.22-3.23s-.39-2.46-.59-3.85-.4-2.9-.75-4.47-.84-3.21-1.28-5a81.65,81.65,0,0,0-10.72-23.66,83.82,83.82,0,0,0-60.86-37.38c-1.73-.28-3.56-.23-5.36-.36a47,47,0,0,0-5.42-.14,86.48,86.48,0,0,0-32.79,7.23,88.05,88.05,0,0,0-19.88,12.43,83.81,83.81,0,0,0-26.36,40A84.62,84.62,0,0,0,768,316a83.72,83.72,0,0,0,26.36,40,88.09,88.09,0,0,0,19.88,12.44A81.86,81.86,0,0,0,836,374.67a80.36,80.36,0,0,0,11,.95,51.31,51.31,0,0,0,5.4-.14c1.78-.13,3.58-.08,5.34-.35a83.86,83.86,0,0,0,60.88-37.39,81.65,81.65,0,0,0,10.72-23.66c.44-1.75.88-3.41,1.28-5s.51-3.07.75-4.45.41-2.66.59-3.84.15-2.28.22-3.25c.21-3.89.32-6,.32-6Z" transform="translate(-28.35 81.95)"/>
      <path class="n" d="M848.42,272.49A42.46,42.46,0,1,1,806,230,42.47,42.47,0,0,1,848.42,272.49Z" transform="translate(-28.35 81.95)"/>
      <path class="n" d="M860.5,234.7a18.34,18.34,0,1,1-18.34-18.33A18.34,18.34,0,0,1,860.5,234.7Z" transform="translate(-28.35 81.95)"/>
    </g>
    <g>
      <path class="n" d="M2160.38,151.15s0,.87-.1,2.51c0,.41,0,.87-.09,1.37s-.14,1.05-.23,1.64-.15,1.24-.29,1.91-.34,1.37-.54,2.12a37.31,37.31,0,0,1-4.39,10.18,38.75,38.75,0,0,1-9.87,10.59,37.52,37.52,0,0,1-16.06,6.62c-.77.15-1.56.17-2.35.26l-1.2.1-.61.06H2124a38.54,38.54,0,0,1-14.78-2.65,39.8,39.8,0,0,1-9.28-5.28,41,41,0,0,1-7.56-8,37.82,37.82,0,0,1-4.95-10.13l-.74-2.76c-.28-.92-.34-1.87-.53-2.81a22.88,22.88,0,0,1-.33-2.84l-.09-1.43,0-.71v-.63c0-.1,0,.11,0-.26l.15-2.61a13.36,13.36,0,0,1,.11-1.35l.22-1.47.24-1.48.12-.73.18-.69.73-2.76a38,38,0,0,1,5-10.13,40.44,40.44,0,0,1,7.57-8,39.93,39.93,0,0,1,9.27-5.29,37.25,37.25,0,0,1,9.93-2.43,36.73,36.73,0,0,1,4.9-.21h.53a.76.76,0,0,1,.16,0l.59,0,1.13.11c.77.09,1.49.1,2.28.25a37.42,37.42,0,0,1,16.13,6.62,38.91,38.91,0,0,1,9.87,10.59,37.14,37.14,0,0,1,4.39,10.17c.2.75.38,1.46.54,2.12s.19,1.32.29,1.91.17,1.13.23,1.64.06,1,.09,1.37c.07,1.64.1,2.52.1,2.52Zm-.36,0s-.05-.87-.14-2.49c0-.41,0-.86-.09-1.36s-.16-1-.25-1.62-.17-1.21-.32-1.87-.34-1.35-.54-2.09a34.4,34.4,0,0,0-4.49-9.94,35.26,35.26,0,0,0-25.57-15.71c-.74-.11-1.5-.09-2.26-.15a21.81,21.81,0,0,0-2.28,0,32.84,32.84,0,0,0-4.61.39,34.52,34.52,0,0,0-9.16,2.64,37,37,0,0,0-8.35,5.23,35.31,35.31,0,0,0-11.08,16.8,35.57,35.57,0,0,0,0,20.44,35.31,35.31,0,0,0,11.08,16.8,37,37,0,0,0,8.35,5.23,36.46,36.46,0,0,0,13.79,3c.74.06,1.51-.05,2.26-.06s1.51,0,2.25-.15a35.29,35.29,0,0,0,25.58-15.7,34.45,34.45,0,0,0,4.49-10c.2-.73.37-1.43.54-2.09s.22-1.28.32-1.87.17-1.11.25-1.61.06-.95.09-1.36c.09-1.64.14-2.51.14-2.51Z" transform="translate(-28.35 81.95)"/>
      <path class="n" d="M2124.69,143.1a17.84,17.84,0,1,1-17.84-17.84A17.84,17.84,0,0,1,2124.69,143.1Z" transform="translate(-28.35 81.95)"/>
      <path class="n" d="M2129.76,127.23a7.7,7.7,0,1,1-7.7-7.71A7.7,7.7,0,0,1,2129.76,127.23Z" transform="translate(-28.35 81.95)"/>
    </g>
    <g>
      <path class="n" d="M675.47,908.35s-.06,1.7-.2,4.88c0,.8,0,1.7-.15,2.67s-.3,2.05-.46,3.2-.3,2.41-.59,3.72-.66,2.68-1,4.13a73.72,73.72,0,0,1-8.57,19.82,75.56,75.56,0,0,1-19.21,20.64A73.27,73.27,0,0,1,614,980.28c-1.5.3-3,.33-4.59.51l-2.33.21-1.18.1h-1.3a70.48,70.48,0,0,1-9.34-.4A72,72,0,0,1,575.81,976a77.58,77.58,0,0,1-18.06-10.29A79.18,79.18,0,0,1,543,950a74.3,74.3,0,0,1-9.66-19.73l-1.43-5.37a50.64,50.64,0,0,1-1-5.47,41.3,41.3,0,0,1-.66-5.53l-.16-2.79-.08-1.39,0-.69v-.53a3.27,3.27,0,0,1,0-.5l.3-5.09c.08-.88,0-1.63.21-2.61l.44-2.89.45-2.86.24-1.44.35-1.34,1.43-5.37a73.85,73.85,0,0,1,9.68-19.72,71.2,71.2,0,0,1,32.78-25.94A71.89,71.89,0,0,1,595.17,836a69.79,69.79,0,0,1,9.55-.42h1.36l1.11.11,2.22.21c1.49.16,2.9.19,4.44.48a73.09,73.09,0,0,1,31.41,12.88,75.74,75.74,0,0,1,19.22,20.63,73.14,73.14,0,0,1,8.57,19.82c.36,1.46.71,2.83,1,4.13s.39,2.55.59,3.7.31,2.22.45,3.2a26.72,26.72,0,0,1,.16,2.67c.14,3.2.2,4.91.2,4.91Zm-.72,0s-.08-1.69-.26-4.85a26.21,26.21,0,0,0-.17-2.65c-.16-1-.32-2-.49-3.15s-.32-2.37-.61-3.66-.69-2.62-1.05-4.06a67.25,67.25,0,0,0-8.77-19.35A68.51,68.51,0,0,0,613.61,840c-1.42-.23-2.92-.18-4.39-.29a38.8,38.8,0,0,0-4.43-.12,65.36,65.36,0,0,0-9,.78A66.71,66.71,0,0,0,578,845.53a71.78,71.78,0,0,0-16.27,10.17,74.3,74.3,0,0,0-13.09,14.67,73.34,73.34,0,0,0-8.47,18.07,69,69,0,0,0,0,39.79,73.85,73.85,0,0,0,8.47,18.07A74.81,74.81,0,0,0,561.69,961,71.43,71.43,0,0,0,578,971.13a67.1,67.1,0,0,0,17.83,5.15,66.25,66.25,0,0,0,9,.77,40.84,40.84,0,0,0,4.42-.12c1.47-.1,2.93-.06,4.36-.29a68.52,68.52,0,0,0,49.82-30.58,67.3,67.3,0,0,0,8.77-19.36c.36-1.43.72-2.79,1.05-4.06s.41-2.51.6-3.64.34-2.18.5-3.15.13-1.87.17-2.65c.18-3.19.26-4.88.26-4.88Z" transform="translate(-28.35 81.95)"/>
      <path class="n" d="M606,892.67a34.74,34.74,0,1,1-34.74-34.74A34.74,34.74,0,0,1,606,892.67Z" transform="translate(-28.35 81.95)"/>
      <path class="n" d="M615.84,861.76a15,15,0,1,1-15-15A15,15,0,0,1,615.84,861.76Z" transform="translate(-28.35 81.95)"/>
    </g>
    <g>
      <path class="n" d="M2191.39,645.47s-.08,1.7-.21,4.88c-.06.79,0,1.69-.15,2.67s-.3,2.05-.46,3.2-.31,2.41-.58,3.71-.67,2.68-1,4.13a73.71,73.71,0,0,1-8.56,19.82,75.53,75.53,0,0,1-19.23,20.64,73.17,73.17,0,0,1-31.27,12.88c-1.5.3-3,.33-4.59.5l-2.34.21-1.16.1h-1.3a68.62,68.62,0,0,1-9.34-.39,71.8,71.8,0,0,1-19.44-4.75,77.07,77.07,0,0,1-18.07-10.3,78.6,78.6,0,0,1-14.72-15.66,73.41,73.41,0,0,1-9.66-19.73l-1.43-5.37a52.71,52.71,0,0,1-1-5.47,38,38,0,0,1-.66-5.52l-.18-2.79-.07-1.39,0-.7,0-.34v-.18c0-.2,0,.22,0-.5l.3-5.1a25.14,25.14,0,0,1,.21-2.61l.44-2.88.46-2.87.23-1.43.36-1.35,1.41-5.37a74.29,74.29,0,0,1,9.68-19.72,71.22,71.22,0,0,1,32.78-25.93,75.65,75.65,0,0,1,28.89-5.16h1a2.21,2.21,0,0,1,.32,0l1.12.1,2.23.21c1.48.17,2.89.19,4.43.49a73.07,73.07,0,0,1,31.41,12.88A75.25,75.25,0,0,1,2180.38,607a73.6,73.6,0,0,1,8.58,19.81c.36,1.46.7,2.83,1,4.13s.39,2.56.58,3.7.31,2.22.44,3.2.11,1.88.17,2.68c.13,3.2.21,4.91.21,4.91Zm-.73,0s-.08-1.69-.25-4.86c-.07-.79,0-1.68-.19-2.64s-.31-2-.48-3.15-.33-2.37-.62-3.66-.67-2.63-1-4.06a66.66,66.66,0,0,0-8.78-19.36,68.59,68.59,0,0,0-49.79-30.59c-1.42-.22-2.91-.18-4.39-.29a38.72,38.72,0,0,0-4.43-.11,65.6,65.6,0,0,0-9,.77,66.3,66.3,0,0,0-17.82,5.15,71.84,71.84,0,0,0-16.28,10.17,74.48,74.48,0,0,0-13.08,14.66,73.54,73.54,0,0,0-8.48,18.07,69.24,69.24,0,0,0,0,39.79,73.54,73.54,0,0,0,8.48,18.07,74.54,74.54,0,0,0,13.08,14.67,71.84,71.84,0,0,0,16.28,10.17,71.07,71.07,0,0,0,26.85,5.92,40.48,40.48,0,0,0,4.4-.12c1.47-.1,2.94-.06,4.37-.29a68.61,68.61,0,0,0,49.81-30.58,66.71,66.71,0,0,0,8.78-19.37c.37-1.42.71-2.78,1-4.06s.42-2.51.62-3.64.33-2.18.48-3.14.12-1.87.19-2.66c.17-3.18.25-4.88.25-4.88Z" transform="translate(-28.35 81.95)"/>
      <path class="n" d="M2121.87,629.79A34.75,34.75,0,1,1,2087.13,595,34.75,34.75,0,0,1,2121.87,629.79Z" transform="translate(-28.35 81.95)"/>
      <path class="n" d="M2131.75,598.87a15,15,0,1,1-15-15A15,15,0,0,1,2131.75,598.87Z" transform="translate(-28.35 81.95)"/>
    </g>
    <g>
      <path class="n" d="M1273,1301.68s0,1.22-.14,3.53c0,.58,0,1.22-.12,1.93s-.21,1.49-.33,2.32-.22,1.75-.42,2.7-.48,1.94-.74,3a53.78,53.78,0,0,1-6.21,14.37,55,55,0,0,1-13.92,15,53.12,53.12,0,0,1-22.67,9.34c-1.1.21-2.21.24-3.33.37l-1.69.15-.86.07h-.94a49.47,49.47,0,0,1-6.76-.29,52.09,52.09,0,0,1-14.1-3.43,56.57,56.57,0,0,1-13.1-7.47,57.56,57.56,0,0,1-10.66-11.35,53.42,53.42,0,0,1-7-14.3l-1-3.89a38,38,0,0,1-.75-4,30.08,30.08,0,0,1-.47-4l-.12-2-.06-1,0-.5,0-.25v-.49l.22-3.69a16.59,16.59,0,0,1,.16-1.9l.31-2.09.33-2.07.18-1,.25-1,1-3.89a53.87,53.87,0,0,1,7-14.3,51.93,51.93,0,0,1,23.76-18.8,55,55,0,0,1,20.94-3.73h1l.79.07,1.62.15c1.08.12,2.1.14,3.22.36a53,53,0,0,1,22.76,9.33,55.09,55.09,0,0,1,13.94,15,53.32,53.32,0,0,1,6.21,14.37c.26,1.06.5,2,.74,3s.28,1.85.42,2.68.23,1.61.33,2.32.08,1.36.12,1.94c.09,2.31.14,3.56.14,3.56Zm-.52,0s-.07-1.23-.19-3.52c0-.57,0-1.22-.12-1.92s-.24-1.46-.36-2.29-.23-1.71-.44-2.64-.5-1.91-.76-2.94a48.26,48.26,0,0,0-6.36-14,50.71,50.71,0,0,0-14-14.15,51.25,51.25,0,0,0-22.06-8c-1-.16-2.11-.14-3.17-.21a29.21,29.21,0,0,0-3.23-.08,46.79,46.79,0,0,0-6.52.56,48.53,48.53,0,0,0-12.92,3.73,52.15,52.15,0,0,0-11.79,7.37,54.53,54.53,0,0,0-9.5,10.63,53.51,53.51,0,0,0-6.13,13.1,50.1,50.1,0,0,0,0,28.84,53.44,53.44,0,0,0,6.13,13.09,54.53,54.53,0,0,0,9.5,10.63,52.19,52.19,0,0,0,11.79,7.38,48.63,48.63,0,0,0,12.92,3.73,48,48,0,0,0,6.55.55,28.67,28.67,0,0,0,3.2-.08c1-.08,2.12,0,3.15-.2a49.77,49.77,0,0,0,36.11-22.17,48.54,48.54,0,0,0,6.36-14c.26-1,.51-2,.76-3s.31-1.82.44-2.63.24-1.59.36-2.28.08-1.35.12-1.93c.12-2.3.19-3.54.19-3.54Z" transform="translate(-28.35 81.95)"/>
      <path class="n" d="M1222.63,1290.3a25.18,25.18,0,1,1-25.18-25.17A25.18,25.18,0,0,1,1222.63,1290.3Z" transform="translate(-28.35 81.95)"/>
      <path class="n" d="M1229.79,1267.9a10.88,10.88,0,1,1-10.88-10.88A10.88,10.88,0,0,1,1229.79,1267.9Z" transform="translate(-28.35 81.95)"/>
    </g>
    <g>
      <path class="n" d="M1663,1207.89s0,.87-.11,2.5c0,.41,0,.87-.07,1.37s-.16,1-.24,1.65-.15,1.23-.3,1.9-.35,1.38-.53,2.12a37.38,37.38,0,0,1-4.4,10.18,38.87,38.87,0,0,1-9.86,10.6,37.69,37.69,0,0,1-16.06,6.61c-.77.16-1.56.17-2.36.26l-1.2.11-.6,0h-.67a36.16,36.16,0,0,1-4.79-.2,37.26,37.26,0,0,1-10-2.44,39.7,39.7,0,0,1-9.29-5.29,40.61,40.61,0,0,1-7.54-8,37.73,37.73,0,0,1-5-10.13l-.74-2.76a26.25,26.25,0,0,1-.52-2.81,20.77,20.77,0,0,1-.34-2.84l-.09-1.43,0-.71v-.54l0-.09v-.26l.16-2.61c0-.45,0-.84.11-1.34l.22-1.48.23-1.48.12-.73.19-.69.74-2.76a37.71,37.71,0,0,1,5-10.13,36.5,36.5,0,0,1,16.84-13.32,36.79,36.79,0,0,1,9.92-2.42,35.15,35.15,0,0,1,4.9-.22h.7l.57.06,1.14.11c.77.08,1.49.09,2.28.24a37.54,37.54,0,0,1,16.13,6.62,38.75,38.75,0,0,1,9.87,10.59,37.56,37.56,0,0,1,4.4,10.18c.18.75.36,1.45.53,2.12s.2,1.31.3,1.9.15,1.14.24,1.64.05,1,.07,1.37c.07,1.65.11,2.53.11,2.53Zm-.38,0s0-.87-.12-2.5c0-.41,0-.86-.1-1.36s-.16-1-.25-1.62-.16-1.21-.31-1.87-.34-1.35-.54-2.09a34.85,34.85,0,0,0-4.5-9.94,35.21,35.21,0,0,0-25.57-15.7c-.73-.12-1.5-.1-2.26-.16a21.62,21.62,0,0,0-2.27-.05,34.56,34.56,0,0,0-4.62.39,34,34,0,0,0-9.15,2.65,36.53,36.53,0,0,0-8.36,5.22,35.35,35.35,0,0,0-6.72,46.52,38.66,38.66,0,0,0,6.72,7.53,36.53,36.53,0,0,0,8.36,5.22,34.48,34.48,0,0,0,9.15,2.65,36,36,0,0,0,4.63.39,19,19,0,0,0,2.26-.06c.76,0,1.52,0,2.25-.15a35.21,35.21,0,0,0,25.58-15.7,34.77,34.77,0,0,0,4.5-10c.2-.73.36-1.42.54-2.08s.21-1.29.3-1.87.18-1.12.26-1.62.07-1,.1-1.36c.08-1.64.12-2.5.12-2.5Z" transform="translate(-28.35 81.95)"/>
      <path class="n" d="M1627.33,1199.83a17.84,17.84,0,1,1-17.84-17.84A17.84,17.84,0,0,1,1627.33,1199.83Z" transform="translate(-28.35 81.95)"/>
      <path class="n" d="M1632.4,1184a7.7,7.7,0,1,1-7.7-7.71A7.7,7.7,0,0,1,1632.4,1184Z" transform="translate(-28.35 81.95)"/>
    </g>
    <g>
      <path class="n" d="M2151.07,1467.06s-.08,1.7-.21,4.88c-.06.79,0,1.69-.17,2.67s-.28,2-.45,3.2-.3,2.4-.58,3.71l-1,4.13a74.09,74.09,0,0,1-8.57,19.82,75.79,75.79,0,0,1-19.22,20.64,73.17,73.17,0,0,1-31.27,12.88c-1.51.3-3,.33-4.59.5l-2.34.21-1.16.1h-1.31a70.19,70.19,0,0,1-9.33-.39,72,72,0,0,1-19.45-4.75,77.27,77.27,0,0,1-18.07-10.3,78.89,78.89,0,0,1-14.72-15.66A73.68,73.68,0,0,1,2009,1489l-1.43-5.37a52.71,52.71,0,0,1-1-5.47,38.13,38.13,0,0,1-.67-5.53l-.17-2.78-.08-1.39,0-.7v-.52a3.46,3.46,0,0,1,0-.5l.3-5.1c.08-.88,0-1.62.21-2.61l.45-2.88.46-2.87.23-1.43.35-1.35,1.42-5.37a74.57,74.57,0,0,1,9.67-19.72,71.22,71.22,0,0,1,32.78-25.93,72.38,72.38,0,0,1,19.33-4.74,73.51,73.51,0,0,1,9.57-.42h1a2.29,2.29,0,0,1,.32,0l1.12.1,2.21.21c1.5.17,2.91.19,4.44.49a73,73,0,0,1,31.41,12.88,75.61,75.61,0,0,1,19.22,20.63,73.6,73.6,0,0,1,8.58,19.81l1,4.13c.28,1.3.39,2.56.58,3.7s.32,2.22.45,3.2.11,1.88.17,2.68c.13,3.19.21,4.91.21,4.91Zm-.73,0s-.08-1.69-.26-4.86c-.06-.79,0-1.68-.18-2.64s-.32-2-.5-3.15-.31-2.37-.6-3.66l-1.05-4.06a66.61,66.61,0,0,0-8.77-19.36,68.59,68.59,0,0,0-49.79-30.59c-1.42-.22-2.91-.18-4.39-.29a41.31,41.31,0,0,0-4.43-.12,67.24,67.24,0,0,0-9,.78,66.47,66.47,0,0,0-17.83,5.15,72,72,0,0,0-16.27,10.17,74.48,74.48,0,0,0-13.08,14.66,73.54,73.54,0,0,0-8.48,18.07,69,69,0,0,0,0,39.79,68.59,68.59,0,0,0,21.56,32.73,71.69,71.69,0,0,0,16.27,10.18,67.29,67.29,0,0,0,17.83,5.14,66.55,66.55,0,0,0,9,.78,43.37,43.37,0,0,0,4.41-.12c1.47-.1,2.93-.06,4.37-.29a68.58,68.58,0,0,0,49.81-30.59,66.56,66.56,0,0,0,8.77-19.35l1.05-4.07c.29-1.29.42-2.51.6-3.64s.35-2.18.5-3.15.12-1.86.18-2.65c.18-3.18.26-4.88.26-4.88Z" transform="translate(-28.35 81.95)"/>
      <path class="n" d="M2081.54,1451.37a34.74,34.74,0,1,1-34.73-34.74A34.74,34.74,0,0,1,2081.54,1451.37Z" transform="translate(-28.35 81.95)"/>
      <path class="n" d="M2091.43,1420.46a15,15,0,1,1-15-15A15,15,0,0,1,2091.43,1420.46Z" transform="translate(-28.35 81.95)"/>
    </g>
  </g>
</svg>
