<svg xmlns="http://www.w3.org/2000/svg" xmlns:xlink="http://www.w3.org/1999/xlink" viewBox="0 0 210 184.04"><defs><style>.thumb-l-a{fill:none;stroke:#1a294a;stroke-miterlimit:10;stroke-width:7px;}.thumb-l-b{fill:#e2e3e4;}.thumb-l-c{clip-path:url(#a);}.thumb-l-d{fill:#fefbf6;}.thumb-l-e{fill:#0ce8d6;}.thumb-l-f{fill:#0fc;}</style><clipPath id="a"><path class="thumb-l-a" d="M82.56,90.38l5.3-4.07a4.77,4.77,0,0,0,.65-.62C90.73,83.08,105,66,108.25,55.1a4.23,4.23,0,0,0,.16-1.17V36.35a5.85,5.85,0,0,1,2.34-4.67,11.91,11.91,0,0,1,13.49-1,4.2,4.2,0,0,1,1.61,1.49,60.21,60.21,0,0,1,7.11,17,16.38,16.38,0,0,1,.22,6.65L129.64,76.3a.73.73,0,0,0,.72.86h35.7a9,9,0,0,1,8.83,7,14.33,14.33,0,0,1,.31,3c0,5.56-3.18,8.13-5.35,9.24a1.28,1.28,0,0,0-.31,2.05,8.92,8.92,0,0,1,2.77,6.47c0,4-3,6.9-4.53,8.07a.86.86,0,0,0-.11,1.25,9.3,9.3,0,0,1,2.2,6.21c0,3.81-2.82,7-4.94,8.44a1.36,1.36,0,0,0-.38,1.86,12.89,12.89,0,0,1,1.77,6.78c0,5.33-5.33,9.54-10.43,9.54h-62a4.18,4.18,0,0,1-1.9-.45l-8.73-4.36a4.27,4.27,0,0,1-2.36-3.81V93.76A4.28,4.28,0,0,1,82.56,90.38Z"/></clipPath></defs><path class="thumb-l-b" d="M82.56,90.38l5.3-4.07a4.77,4.77,0,0,0,.65-.62C90.73,83.08,105,66,108.25,55.1a4.23,4.23,0,0,0,.16-1.17V36.35a5.85,5.85,0,0,1,2.34-4.67,11.91,11.91,0,0,1,13.49-1,4.2,4.2,0,0,1,1.61,1.49,60.21,60.21,0,0,1,7.11,17,16.38,16.38,0,0,1,.22,6.65L129.64,76.3a.73.73,0,0,0,.72.86h35.7a9,9,0,0,1,8.83,7,14.33,14.33,0,0,1,.31,3c0,5.56-3.18,8.13-5.35,9.24a1.28,1.28,0,0,0-.31,2.05,8.92,8.92,0,0,1,2.77,6.47c0,4-3,6.9-4.53,8.07a.86.86,0,0,0-.11,1.25,9.3,9.3,0,0,1,2.2,6.21c0,3.81-2.82,7-4.94,8.44a1.36,1.36,0,0,0-.38,1.86,12.89,12.89,0,0,1,1.77,6.78c0,5.33-5.33,9.54-10.43,9.54h-62a4.18,4.18,0,0,1-1.9-.45l-8.73-4.36a4.27,4.27,0,0,1-2.36-3.81V93.76A4.28,4.28,0,0,1,82.56,90.38Z"/><g class="thumb-l-c"><path class="thumb-l-d" d="M70.38,90.38l5.31-4.07a4.18,4.18,0,0,0,.64-.62C78.56,83.08,92.85,66,96.07,55.1a3.89,3.89,0,0,0,.16-1.17V36.35a5.86,5.86,0,0,1,2.35-4.67,11.91,11.91,0,0,1,13.49-1,4.2,4.2,0,0,1,1.61,1.49,60.21,60.21,0,0,1,7.11,17,16.38,16.38,0,0,1,.22,6.65L117.46,76.3a.74.74,0,0,0,.73.86h35.7a9,9,0,0,1,8.82,7,13.69,13.69,0,0,1,.31,3c0,5.56-3.18,8.13-5.35,9.24a1.28,1.28,0,0,0-.3,2.05,9,9,0,0,1,2.77,6.47c0,4-3,6.9-4.53,8.07a.86.86,0,0,0-.12,1.25,9.24,9.24,0,0,1,2.21,6.21c0,3.81-2.83,7-4.95,8.44a1.37,1.37,0,0,0-.38,1.86,12.78,12.78,0,0,1,1.78,6.78c0,5.33-5.33,9.54-10.43,9.54h-62a4.22,4.22,0,0,1-1.91-.45l-8.73-4.36a4.26,4.26,0,0,1-2.35-3.81V93.76A4.27,4.27,0,0,1,70.38,90.38Z"/></g><path class="thumb-l-a" d="M82.56,90.38l5.3-4.07a4.77,4.77,0,0,0,.65-.62C90.73,83.08,105,66,108.25,55.1a4.23,4.23,0,0,0,.16-1.17V36.35a5.85,5.85,0,0,1,2.34-4.67,11.91,11.91,0,0,1,13.49-1,4.2,4.2,0,0,1,1.61,1.49,60.21,60.21,0,0,1,7.11,17,16.38,16.38,0,0,1,.22,6.65L129.64,76.3a.73.73,0,0,0,.72.86h35.7a9,9,0,0,1,8.83,7,14.33,14.33,0,0,1,.31,3c0,5.56-3.18,8.13-5.35,9.24a1.28,1.28,0,0,0-.31,2.05,8.92,8.92,0,0,1,2.77,6.47c0,4-3,6.9-4.53,8.07a.86.86,0,0,0-.11,1.25,9.3,9.3,0,0,1,2.2,6.21c0,3.81-2.82,7-4.94,8.44a1.36,1.36,0,0,0-.38,1.86,12.89,12.89,0,0,1,1.77,6.78c0,5.33-5.33,9.54-10.43,9.54h-62a4.18,4.18,0,0,1-1.9-.45l-8.73-4.36a4.27,4.27,0,0,1-2.36-3.81V93.76A4.28,4.28,0,0,1,82.56,90.38Z"/><rect class="thumb-l-e" x="35.63" y="87.14" width="45.26" height="64.12" rx="4.52"/><rect class="thumb-l-f" x="34.8" y="99.95" width="32.86" height="51.32" rx="3.44"/><rect class="thumb-l-a" x="35.63" y="87.14" width="45.26" height="64.12" rx="4.52"/></svg>