<svg class="thumb-up-small" xmlns="http://www.w3.org/2000/svg" width="200" height="200" viewBox="0 0 200 200"><defs><style>.thumb-s-a{fill:none;stroke:#1a294a;stroke-miterlimit:10;stroke-width:7px;}</style></defs><path class="thumb-s-a" d="M73.38,87.35l5.3-4.08a4.16,4.16,0,0,0,.65-.61C81.55,80.05,95.85,63,99.07,52.07a4.25,4.25,0,0,0,.16-1.18V33.32a5.87,5.87,0,0,1,2.34-4.68,12,12,0,0,1,13.49-1,4.22,4.22,0,0,1,1.61,1.5,60.21,60.21,0,0,1,7.11,17,16.2,16.2,0,0,1,.22,6.65l-3.54,20.53a.74.74,0,0,0,.72.87h35.71a9,9,0,0,1,8.82,7,14.19,14.19,0,0,1,.31,3c0,5.56-3.18,8.13-5.35,9.23a1.29,1.29,0,0,0-.31,2.06,8.89,8.89,0,0,1,2.77,6.46c0,4-3,6.91-4.53,8.08a.86.86,0,0,0-.11,1.25,9.26,9.26,0,0,1,2.2,6.2c0,3.82-2.82,7-4.94,8.44a1.36,1.36,0,0,0-.38,1.86,13,13,0,0,1,1.77,6.79c0,5.32-5.32,9.54-10.43,9.54h-62a4.18,4.18,0,0,1-1.9-.45l-8.73-4.36a4.28,4.28,0,0,1-2.36-3.81V90.73A4.26,4.26,0,0,1,73.38,87.35Z"/><rect class="thumb-s-a" x="26.45" y="84.11" width="45.26" height="64.12" rx="4.52"/><path class="thumb-s-a" d="M54.42,135.41c0,2.1-2.39,3.81-5.34,3.81s-5.34-1.71-5.34-3.81,2.39-3.82,5.34-3.82S54.42,133.3,54.42,135.41Z"/></svg>